<?xml version="1.0" encoding="UTF-8"?>
<!-- Do not edit this file with editors other than draw.io -->
<!DOCTYPE svg PUBLIC "-//W3C//DTD SVG 1.1//EN" "http://www.w3.org/Graphics/SVG/1.1/DTD/svg11.dtd">
<svg xmlns="http://www.w3.org/2000/svg" style="background: transparent; background-color: transparent; color-scheme: light dark;" xmlns:xlink="http://www.w3.org/1999/xlink" version="1.1" width="45px" height="49px" viewBox="0 0 45 49" content="&lt;mxfile host=&quot;app.diagrams.net&quot; scale=&quot;1&quot; border=&quot;0&quot;&gt;&#10;  &lt;diagram name=&quot;Página-1&quot; id=&quot;MrY8yRdShpUUSPMiWDg1&quot;&gt;&#10;    &lt;mxGraphModel dx=&quot;-1995&quot; dy=&quot;190&quot; grid=&quot;1&quot; gridSize=&quot;10&quot; guides=&quot;1&quot; tooltips=&quot;1&quot; connect=&quot;1&quot; arrows=&quot;1&quot; fold=&quot;1&quot; page=&quot;1&quot; pageScale=&quot;1&quot; pageWidth=&quot;1169&quot; pageHeight=&quot;827&quot; math=&quot;0&quot; shadow=&quot;0&quot;&gt;&#10;      &lt;root&gt;&#10;        &lt;mxCell id=&quot;0&quot; /&gt;&#10;        &lt;mxCell id=&quot;1&quot; parent=&quot;0&quot; /&gt;&#10;        &lt;mxCell id=&quot;2&quot; parent=&quot;1&quot; style=&quot;shadow=0;dashed=0;html=1;strokeColor=none;fillColor=#4495D1;labelPosition=center;verticalLabelPosition=bottom;verticalAlign=top;align=center;outlineConnect=0;shape=mxgraph.veeam.portal_admin;&quot; value=&quot;&quot; vertex=&quot;1&quot;&gt;&#10;          &lt;mxGeometry height=&quot;48.8&quot; width=&quot;44.4&quot; x=&quot;3732&quot; y=&quot;270&quot; as=&quot;geometry&quot; /&gt;&#10;        &lt;/mxCell&gt;&#10;      &lt;/root&gt;&#10;    &lt;/mxGraphModel&gt;&#10;  &lt;/diagram&gt;&#10;&lt;/mxfile&gt;&#10;"><defs/><g><g data-cell-id="0"><g data-cell-id="1"><g data-cell-id="G_nE93u9n-B-lsNTsYu3-1"/><g data-cell-id="G_nE93u9n-B-lsNTsYu3-2"/><g data-cell-id="zhKt3fNSLgRZPjDAheu--1"/><g data-cell-id="UvL_e13xT3raBQWUSXP_-1"/><g data-cell-id="GsSff52rk4mW3boRFP0h-7"/><g data-cell-id="GsSff52rk4mW3boRFP0h-9"/><g data-cell-id="ZdjWKGI6bNVlR5FEHZFW-1"/><g data-cell-id="ZdjWKGI6bNVlR5FEHZFW-3"/><g data-cell-id="bX_caWo315ZGvje-jDk6-1"/><g data-cell-id="Y_fi08IE4hqae7w_Tzpa-50"/><g data-cell-id="5oGYHbYtzKlPw1tetjBF-1"/><g data-cell-id="WDzIs54vf-4zkKUbdtyc-37"/><g data-cell-id="1WoK9DH8LehlSpO7o1Ps-2"/><g data-cell-id="1WoK9DH8LehlSpO7o1Ps-5"/><g data-cell-id="1WoK9DH8LehlSpO7o1Ps-6"/><g data-cell-id="1WoK9DH8LehlSpO7o1Ps-7"/><g data-cell-id="1WoK9DH8LehlSpO7o1Ps-8"/><g data-cell-id="1WoK9DH8LehlSpO7o1Ps-9"/><g data-cell-id="1WoK9DH8LehlSpO7o1Ps-10"/><g data-cell-id="-kmVXlDiMHHaOPHUomdn-1"/><g data-cell-id="KTjtkFEQTRu0PTSYvWHU-1"/><g data-cell-id="rGORHgAdceWWBniuG1m0-1"/><g data-cell-id="vrxTuX8FkNkkHSooEGDv-1"/><g data-cell-id="F8C5W64Wgj4YblldRyXc-8"/><g data-cell-id="eb3jSgFVWkLo57E214wc-1"/><g data-cell-id="eb3jSgFVWkLo57E214wc-2"/><g data-cell-id="eb3jSgFVWkLo57E214wc-3"><g><path d="M 17.83 26.77 C 12.64 26.77 6.5 22.49 6.5 15.08 L 6.5 11.93 C 6.5 5.03 11.82 0 17.93 0 C 25.01 0 29.7 5.56 29.7 11.91 L 29.7 15.42 C 29.7 20.53 25.34 26.77 17.83 26.77 Z M 1.61 48.79 C 0.98 48.79 0 47.95 0 46.92 L 0 41.28 C 0 35.1 4.29 29.23 10.3 27.45 C 12.08 28.64 14.86 29.74 18.07 29.74 C 21.39 29.74 24.19 28.77 26.08 27.41 C 27.68 28.05 28.95 28.67 30.65 29.93 C 27.31 31.6 24.44 35.44 24.44 39.91 C 24.46 44.28 26.63 47.16 28.52 48.79 Z" fill="#4495d1" stroke="none" pointer-events="all" style="fill: light-dark(rgb(68, 149, 209), rgb(61, 131, 183));"/><path d="M 35.63 48.8 C 31.18 48.8 26.93 45.31 26.93 39.89 C 26.93 35.37 30.49 31.19 35.8 31.19 C 39.66 31.19 44.4 34.24 44.4 40.08 C 44.18 45.94 39.67 48.8 35.63 48.8 Z" fill="#f7941d" stroke="none" pointer-events="all" style="fill: light-dark(rgb(247, 148, 29), rgb(174, 89, 0));"/><path d="M 35.72 36.95 C 36.05 36.95 36.32 36.64 36.32 36.33 C 36.32 35.99 36.08 35.76 35.68 35.76 C 35.33 35.76 35.1 36 35.1 36.29 C 35.1 36.67 35.36 36.95 35.72 36.95 Z M 35.4 45.23 L 34.45 44.58 L 34.45 39.97 C 33.79 39.82 32.87 39.03 32.87 37.6 C 32.87 36.04 34.19 34.88 35.61 34.88 C 37.12 34.88 38.23 36.37 38.23 37.53 C 38.23 38.7 37.74 39.69 36.72 39.95 L 36.72 40.63 L 36.21 41.1 L 36.72 41.56 L 36.72 41.93 L 36.22 42.35 L 36.72 42.85 L 36.72 43.2 L 36.23 43.67 L 36.39 43.95 L 36.39 44.55 Z" fill="#ffffff" stroke="none" pointer-events="all" style="fill: light-dark(rgb(255, 255, 255), rgb(18, 18, 18));"/></g></g><g data-cell-id="eb3jSgFVWkLo57E214wc-4"/><g data-cell-id="eb3jSgFVWkLo57E214wc-5"/><g data-cell-id="eb3jSgFVWkLo57E214wc-6"/><g data-cell-id="eb3jSgFVWkLo57E214wc-7"/><g data-cell-id="eb3jSgFVWkLo57E214wc-8"/><g data-cell-id="eb3jSgFVWkLo57E214wc-9"/><g data-cell-id="eb3jSgFVWkLo57E214wc-10"/><g data-cell-id="eb3jSgFVWkLo57E214wc-11"/><g data-cell-id="eb3jSgFVWkLo57E214wc-12"/><g data-cell-id="eb3jSgFVWkLo57E214wc-13"/><g data-cell-id="eb3jSgFVWkLo57E214wc-14"/><g data-cell-id="eb3jSgFVWkLo57E214wc-15"/><g data-cell-id="eb3jSgFVWkLo57E214wc-16"/><g data-cell-id="eb3jSgFVWkLo57E214wc-17"/><g data-cell-id="eb3jSgFVWkLo57E214wc-18"/><g data-cell-id="eb3jSgFVWkLo57E214wc-19"/><g data-cell-id="eb3jSgFVWkLo57E214wc-20"/><g data-cell-id="eb3jSgFVWkLo57E214wc-21"/><g data-cell-id="eb3jSgFVWkLo57E214wc-22"/><g data-cell-id="eb3jSgFVWkLo57E214wc-23"/><g data-cell-id="eb3jSgFVWkLo57E214wc-24"/><g data-cell-id="eb3jSgFVWkLo57E214wc-25"/><g data-cell-id="eb3jSgFVWkLo57E214wc-27"/><g data-cell-id="eb3jSgFVWkLo57E214wc-28"/><g data-cell-id="eb3jSgFVWkLo57E214wc-29"/><g data-cell-id="eb3jSgFVWkLo57E214wc-30"/><g data-cell-id="eb3jSgFVWkLo57E214wc-31"/><g data-cell-id="eb3jSgFVWkLo57E214wc-33"/><g data-cell-id="eb3jSgFVWkLo57E214wc-34"/><g data-cell-id="eb3jSgFVWkLo57E214wc-35"/><g data-cell-id="eb3jSgFVWkLo57E214wc-36"/><g data-cell-id="eb3jSgFVWkLo57E214wc-37"/><g data-cell-id="eb3jSgFVWkLo57E214wc-38"/><g data-cell-id="eb3jSgFVWkLo57E214wc-39"/><g data-cell-id="eb3jSgFVWkLo57E214wc-40"/><g data-cell-id="eb3jSgFVWkLo57E214wc-41"/><g data-cell-id="eb3jSgFVWkLo57E214wc-42"/><g data-cell-id="eb3jSgFVWkLo57E214wc-43"/><g data-cell-id="eb3jSgFVWkLo57E214wc-44"/><g data-cell-id="eb3jSgFVWkLo57E214wc-45"/><g data-cell-id="eb3jSgFVWkLo57E214wc-46"/><g data-cell-id="eb3jSgFVWkLo57E214wc-47"/><g data-cell-id="eb3jSgFVWkLo57E214wc-48"/><g data-cell-id="eb3jSgFVWkLo57E214wc-49"/><g data-cell-id="eb3jSgFVWkLo57E214wc-50"/><g data-cell-id="eb3jSgFVWkLo57E214wc-51"/><g data-cell-id="eb3jSgFVWkLo57E214wc-52"/><g data-cell-id="eb3jSgFVWkLo57E214wc-53"/><g data-cell-id="eb3jSgFVWkLo57E214wc-54"/><g data-cell-id="eb3jSgFVWkLo57E214wc-55"/><g data-cell-id="o8hVFUvSSXmKrkMRfL1q-1"/><g data-cell-id="YwiLBD1WqPIzMWWOiwUj-2"/><g data-cell-id="YwiLBD1WqPIzMWWOiwUj-4"/><g data-cell-id="YwiLBD1WqPIzMWWOiwUj-5"/><g data-cell-id="H7reLJrxdtAiIhAkvQo9-1"/></g></g></g></svg>