<?xml version="1.0" encoding="UTF-8"?>
<!-- Do not edit this file with editors other than draw.io -->
<!DOCTYPE svg PUBLIC "-//W3C//DTD SVG 1.1//EN" "http://www.w3.org/Graphics/SVG/1.1/DTD/svg11.dtd">
<svg xmlns="http://www.w3.org/2000/svg" style="background: transparent; background-color: transparent; color-scheme: light dark;" xmlns:xlink="http://www.w3.org/1999/xlink" version="1.1" width="60px" height="60px" viewBox="0 0 60 60" content="&lt;mxfile host=&quot;app.diagrams.net&quot; scale=&quot;1&quot; border=&quot;0&quot;&gt;&#10;  &lt;diagram name=&quot;Página-1&quot; id=&quot;_5QDak3MB7MYLZJc7CUI&quot;&gt;&#10;    &lt;mxGraphModel dx=&quot;1806&quot; dy=&quot;380&quot; grid=&quot;0&quot; gridSize=&quot;10&quot; guides=&quot;1&quot; tooltips=&quot;1&quot; connect=&quot;1&quot; arrows=&quot;1&quot; fold=&quot;1&quot; page=&quot;0&quot; pageScale=&quot;1&quot; pageWidth=&quot;827&quot; pageHeight=&quot;1169&quot; math=&quot;0&quot; shadow=&quot;0&quot;&gt;&#10;      &lt;root&gt;&#10;        &lt;mxCell id=&quot;0&quot; /&gt;&#10;        &lt;mxCell id=&quot;1&quot; parent=&quot;0&quot; /&gt;&#10;        &lt;mxCell id=&quot;2&quot; parent=&quot;1&quot; style=&quot;sketch=0;outlineConnect=0;fontColor=#232F3E;gradientColor=none;fillColor=#C925D1;strokeColor=none;dashed=0;verticalLabelPosition=bottom;verticalAlign=top;align=center;html=1;fontSize=11;fontStyle=0;aspect=fixed;pointerEvents=1;shape=mxgraph.aws4.rds_instance;&quot; value=&quot;&quot; vertex=&quot;1&quot;&gt;&#10;          &lt;mxGeometry height=&quot;60&quot; width=&quot;60&quot; x=&quot;1338.5&quot; y=&quot;1342&quot; as=&quot;geometry&quot; /&gt;&#10;        &lt;/mxCell&gt;&#10;      &lt;/root&gt;&#10;    &lt;/mxGraphModel&gt;&#10;  &lt;/diagram&gt;&#10;&lt;/mxfile&gt;&#10;"><defs/><g><g data-cell-id="0"><g data-cell-id="1"><g data-cell-id="3OdCJHqYtBplBPbDop5Z-7"/><g data-cell-id="P2HnSOVtxoNhvSpFIuC3-25"/><g data-cell-id="P2HnSOVtxoNhvSpFIuC3-1"/><g data-cell-id="f0jid7ufaLWQjPSbmyIL-44"/><g data-cell-id="f0jid7ufaLWQjPSbmyIL-52"/><g data-cell-id="f0jid7ufaLWQjPSbmyIL-55"/><g data-cell-id="f0jid7ufaLWQjPSbmyIL-42"/><g data-cell-id="f0jid7ufaLWQjPSbmyIL-62"/><g data-cell-id="f0jid7ufaLWQjPSbmyIL-78"/><g data-cell-id="f0jid7ufaLWQjPSbmyIL-75"/><g data-cell-id="f0jid7ufaLWQjPSbmyIL-77"/><g data-cell-id="f0jid7ufaLWQjPSbmyIL-83"/><g data-cell-id="f0jid7ufaLWQjPSbmyIL-84"/><g data-cell-id="f0jid7ufaLWQjPSbmyIL-68"/><g data-cell-id="f0jid7ufaLWQjPSbmyIL-69"/><g data-cell-id="f0jid7ufaLWQjPSbmyIL-67"><g data-cell-id="f0jid7ufaLWQjPSbmyIL-80"/><g data-cell-id="f0jid7ufaLWQjPSbmyIL-66"/><g data-cell-id="P2HnSOVtxoNhvSpFIuC3-35"/><g data-cell-id="P2HnSOVtxoNhvSpFIuC3-38"/></g><g data-cell-id="f0jid7ufaLWQjPSbmyIL-72"/><g data-cell-id="f0jid7ufaLWQjPSbmyIL-73"/><g data-cell-id="f0jid7ufaLWQjPSbmyIL-79"/><g data-cell-id="3OdCJHqYtBplBPbDop5Z-8"/><g data-cell-id="3OdCJHqYtBplBPbDop5Z-11"/><g data-cell-id="3OdCJHqYtBplBPbDop5Z-12"/><g data-cell-id="3OdCJHqYtBplBPbDop5Z-13"><g data-cell-id="zEQGm5ujvmd-3Wo6flh--10"/></g><g data-cell-id="3OdCJHqYtBplBPbDop5Z-17"/><g data-cell-id="f0jid7ufaLWQjPSbmyIL-88"/><g data-cell-id="3OdCJHqYtBplBPbDop5Z-20"/><g data-cell-id="f0jid7ufaLWQjPSbmyIL-86"/><g data-cell-id="3OdCJHqYtBplBPbDop5Z-6"/><g data-cell-id="f0jid7ufaLWQjPSbmyIL-85"/><g data-cell-id="P2HnSOVtxoNhvSpFIuC3-5"/><g data-cell-id="P2HnSOVtxoNhvSpFIuC3-8"/><g data-cell-id="P2HnSOVtxoNhvSpFIuC3-7"/><g data-cell-id="P2HnSOVtxoNhvSpFIuC3-11"/><g data-cell-id="P2HnSOVtxoNhvSpFIuC3-12"/><g data-cell-id="P2HnSOVtxoNhvSpFIuC3-13"/><g data-cell-id="P2HnSOVtxoNhvSpFIuC3-14"/><g data-cell-id="P2HnSOVtxoNhvSpFIuC3-15"/><g data-cell-id="P2HnSOVtxoNhvSpFIuC3-16"/><g data-cell-id="P2HnSOVtxoNhvSpFIuC3-17"/><g data-cell-id="P2HnSOVtxoNhvSpFIuC3-6"/><g data-cell-id="P2HnSOVtxoNhvSpFIuC3-18"><g data-cell-id="P2HnSOVtxoNhvSpFIuC3-19"/></g><g data-cell-id="P2HnSOVtxoNhvSpFIuC3-20"/><g data-cell-id="P2HnSOVtxoNhvSpFIuC3-21"/><g data-cell-id="P2HnSOVtxoNhvSpFIuC3-23"/><g data-cell-id="P2HnSOVtxoNhvSpFIuC3-24"/><g data-cell-id="P2HnSOVtxoNhvSpFIuC3-26"/><g data-cell-id="P2HnSOVtxoNhvSpFIuC3-31"/><g data-cell-id="P2HnSOVtxoNhvSpFIuC3-39"/><g data-cell-id="P2HnSOVtxoNhvSpFIuC3-40"/><g data-cell-id="P2HnSOVtxoNhvSpFIuC3-41"/><g data-cell-id="P2HnSOVtxoNhvSpFIuC3-42"/><g data-cell-id="P2HnSOVtxoNhvSpFIuC3-67"/><g data-cell-id="P2HnSOVtxoNhvSpFIuC3-68"/><g data-cell-id="P2HnSOVtxoNhvSpFIuC3-69"/><g data-cell-id="P2HnSOVtxoNhvSpFIuC3-70"/><g data-cell-id="P2HnSOVtxoNhvSpFIuC3-71"><g transform="translate(0.5,0.5)"><rect x="-0.5" y="0" width="60" height="60" fill="none" stroke="none" pointer-events="all"/><path d="M 25.73 31.96 C 25.39 31.96 24.98 31.91 24.5 31.81 C 24.03 31.71 23.59 31.59 23.21 31.45 L 23.21 33.07 C 23.54 33.26 23.95 33.41 24.43 33.52 C 24.92 33.64 25.4 33.69 25.89 33.69 C 27 33.69 27.88 33.41 28.51 32.83 C 29.15 32.26 29.46 31.48 29.46 30.51 C 29.46 30 29.39 29.57 29.24 29.21 C 29.09 28.86 28.86 28.54 28.54 28.25 C 28.23 27.96 27.8 27.67 27.27 27.38 L 26.43 26.93 C 25.98 26.69 25.67 26.46 25.51 26.25 C 25.35 26.04 25.27 25.78 25.27 25.46 C 25.27 25.08 25.39 24.78 25.64 24.56 C 25.89 24.35 26.23 24.24 26.66 24.24 C 27.3 24.24 28.04 24.39 28.88 24.7 L 28.88 23.06 C 28.07 22.69 27.26 22.51 26.45 22.51 C 25.8 22.51 25.22 22.63 24.72 22.89 C 24.22 23.14 23.83 23.5 23.54 23.97 C 23.25 24.44 23.1 24.99 23.1 25.62 C 23.1 26.3 23.27 26.87 23.6 27.35 C 23.93 27.82 24.48 28.27 25.24 28.68 L 26.07 29.13 C 26.5 29.36 26.8 29.58 26.98 29.8 C 27.16 30.02 27.25 30.29 27.25 30.61 C 27.25 31.05 27.12 31.38 26.86 31.61 C 26.61 31.84 26.23 31.96 25.73 31.96 Z M 19.64 27.94 C 19.64 26.72 19.48 25.83 19.15 25.25 C 18.83 24.68 18.32 24.39 17.63 24.39 L 16.73 24.39 L 16.73 31.81 L 17.64 31.81 C 18.31 31.81 18.81 31.51 19.14 30.93 C 19.47 30.35 19.64 29.45 19.64 28.25 Z M 20.83 24.1 C 21.52 25.01 21.87 26.34 21.87 28.09 C 21.87 29.86 21.53 31.19 20.85 32.1 C 20.16 33.01 19.17 33.46 17.87 33.46 L 14.56 33.46 L 14.56 22.74 L 17.8 22.74 C 19.13 22.74 20.14 23.19 20.83 24.1 Z M 10.68 26.11 C 10.68 25.53 10.57 25.1 10.36 24.8 C 10.15 24.5 9.85 24.35 9.44 24.35 L 8.44 24.35 L 8.44 27.88 L 9.44 27.88 C 9.85 27.88 10.15 27.73 10.36 27.43 C 10.57 27.13 10.68 26.69 10.68 26.11 Z M 11.21 29.16 L 13.37 33.46 L 11.15 33.46 L 9.27 29.48 L 8.44 29.48 L 8.44 33.46 L 6.32 33.46 L 6.32 22.74 L 9.71 22.74 C 10.66 22.74 11.41 23.04 11.97 23.64 C 12.53 24.25 12.82 25.07 12.82 26.11 C 12.82 26.83 12.68 27.46 12.4 27.98 C 12.12 28.51 11.72 28.9 11.21 29.16 Z M 53.49 17.99 L 53.49 12.19 C 53.49 11.43 53.33 10.86 53.02 10.47 C 52.7 10.08 52.24 9.88 51.65 9.88 C 50.89 9.88 50.1 10.19 49.28 10.8 L 49.11 10.08 L 47.38 10.08 L 47.38 17.99 L 49.5 17.99 L 49.5 11.86 C 49.88 11.61 50.23 11.49 50.55 11.49 C 50.85 11.49 51.06 11.59 51.18 11.8 C 51.31 12.01 51.37 12.34 51.37 12.79 L 51.37 17.99 Z M 43.77 14.04 C 43.77 13.17 43.69 12.52 43.52 12.11 C 43.35 11.7 43.07 11.49 42.69 11.49 C 42.31 11.49 42.03 11.7 41.86 12.11 C 41.69 12.52 41.61 13.17 41.61 14.04 C 41.61 14.92 41.69 15.56 41.86 15.97 C 42.03 16.38 42.31 16.58 42.69 16.58 C 43.07 16.58 43.35 16.38 43.52 15.97 C 43.69 15.56 43.77 14.92 43.77 14.04 Z M 45.06 10.97 C 45.61 11.69 45.89 12.71 45.89 14.04 C 45.89 15.36 45.61 16.38 45.06 17.11 C 44.5 17.83 43.71 18.19 42.69 18.19 C 41.67 18.19 40.88 17.83 40.32 17.11 C 39.76 16.38 39.49 15.36 39.49 14.04 C 39.49 12.71 39.76 11.69 40.32 10.97 C 40.88 10.24 41.67 9.88 42.69 9.88 C 43.71 9.88 44.5 10.24 45.06 10.97 Z M 33.04 17.99 L 38.53 17.99 L 38.53 16.36 L 35.26 16.36 L 38.47 11.58 L 38.47 10.08 L 33.16 10.08 L 33.16 11.71 L 36.24 11.71 L 33.04 16.49 Z M 29.82 16.21 L 29.82 14.69 C 29.59 14.62 29.32 14.59 29.01 14.59 C 28.71 14.59 28.48 14.68 28.32 14.87 C 28.16 15.06 28.08 15.34 28.08 15.7 C 28.08 16.01 28.15 16.25 28.28 16.43 C 28.41 16.62 28.58 16.7 28.8 16.7 C 29.14 16.7 29.48 16.54 29.82 16.21 Z M 29.18 17.94 C 28.85 18.11 28.52 18.19 28.18 18.19 C 27.54 18.19 27.03 17.98 26.66 17.56 C 26.29 17.15 26.1 16.57 26.1 15.84 C 26.1 15.06 26.33 14.45 26.79 14.01 C 27.24 13.56 27.85 13.33 28.63 13.33 C 28.95 13.33 29.34 13.4 29.82 13.52 L 29.82 12.81 C 29.82 12.27 29.75 11.91 29.61 11.72 C 29.47 11.53 29.21 11.43 28.83 11.43 C 28.21 11.43 27.45 11.59 26.55 11.92 L 26.55 10.52 C 26.85 10.32 27.24 10.17 27.73 10.05 C 28.21 9.94 28.71 9.88 29.21 9.88 C 30.11 9.88 30.76 10.09 31.16 10.49 C 31.57 10.9 31.77 11.55 31.77 12.45 L 31.77 17.99 L 30.13 17.99 L 29.94 17.28 C 29.77 17.55 29.51 17.76 29.18 17.94 Z M 24.6 17.99 L 24.6 12.19 C 24.6 11.44 24.45 10.88 24.14 10.48 C 23.83 10.08 23.39 9.88 22.81 9.88 C 22.09 9.88 21.3 10.2 20.46 10.83 C 20.16 10.2 19.64 9.88 18.91 9.88 C 18.19 9.88 17.41 10.19 16.59 10.8 L 16.42 10.08 L 14.69 10.08 L 14.69 17.99 L 16.81 17.99 L 16.81 11.86 C 17.19 11.61 17.52 11.49 17.81 11.49 C 18.09 11.49 18.29 11.59 18.41 11.8 C 18.53 12.01 18.59 12.33 18.59 12.78 L 18.59 17.99 L 20.7 17.99 L 20.7 12.22 L 20.7 12.03 C 20.7 11.97 20.7 11.91 20.69 11.86 C 21.07 11.61 21.41 11.49 21.71 11.49 C 21.99 11.49 22.19 11.59 22.31 11.8 C 22.42 12.01 22.48 12.33 22.48 12.78 L 22.48 17.99 Z M 10.42 13.89 L 9.44 9.45 L 8.5 13.89 Z M 13.68 17.99 L 11.3 17.99 L 10.74 15.44 L 8.18 15.44 L 7.63 17.99 L 5.36 17.99 L 8.33 7.27 L 10.73 7.27 Z M 56.77 38.26 L 56.77 33.44 C 54.41 34.73 50.84 35.4 47.27 35.4 C 43.71 35.4 40.14 34.73 37.78 33.44 L 37.78 38.26 C 37.78 39.12 41.01 41.13 47.27 41.13 C 53.54 41.13 56.77 39.12 56.77 38.26 Z M 56.77 46.58 L 56.77 41.91 C 54.41 43.19 50.84 43.86 47.27 43.86 C 43.71 43.86 40.14 43.19 37.78 41.91 L 37.78 46.58 C 37.78 47.44 41.01 49.45 47.27 49.45 C 53.54 49.45 56.77 47.44 56.77 46.58 Z M 56.77 54 L 56.77 50.22 C 54.41 51.51 50.84 52.17 47.27 52.17 C 43.71 52.17 40.14 51.51 37.78 50.22 L 37.78 54 C 37.78 54.86 41.01 56.87 47.27 56.87 C 53.54 56.87 56.77 54.86 56.77 54 Z M 37.78 29.8 C 37.78 30.66 41.01 32.67 47.27 32.67 C 53.54 32.67 56.77 30.66 56.77 29.8 C 56.77 28.94 53.54 26.93 47.27 26.93 C 41.01 26.93 37.78 28.94 37.78 29.8 Z M 59.5 29.8 L 59.5 54 C 59.5 57.68 53.35 59.6 47.27 59.6 C 41.2 59.6 35.05 57.68 35.05 54 L 35.05 29.8 C 35.05 26.13 41.2 24.2 47.27 24.2 C 53.35 24.2 59.5 26.13 59.5 29.8 Z M 7.35 57.2 L 34.18 57.2 L 34.18 59.93 L 7.35 59.93 C 3.02 59.93 -0.5 56.41 -0.5 52.08 L -0.5 7.92 C -0.5 3.6 3.02 0.07 7.35 0.07 L 51.5 0.07 C 55.83 0.07 59.35 3.6 59.35 7.92 L 59.35 25.24 L 56.62 25.24 L 56.62 7.92 C 56.62 5.1 54.33 2.8 51.5 2.8 L 7.35 2.8 C 4.52 2.8 2.23 5.1 2.23 7.92 L 2.23 52.08 C 2.23 54.9 4.52 57.2 7.35 57.2 Z" fill="#c925d1" stroke="none" pointer-events="all" style="fill: light-dark(rgb(201, 37, 209), rgb(255, 124, 255));"/></g></g><g data-cell-id="P2HnSOVtxoNhvSpFIuC3-72"/><g data-cell-id="zEQGm5ujvmd-3Wo6flh--3"/><g data-cell-id="zEQGm5ujvmd-3Wo6flh--11"/><g data-cell-id="zEQGm5ujvmd-3Wo6flh--13"/><g data-cell-id="zEQGm5ujvmd-3Wo6flh--15"/><g data-cell-id="zEQGm5ujvmd-3Wo6flh--16"/><g data-cell-id="puLAYJQTpU-C8gVqayVb-1"/><g data-cell-id="HEnMXt0etIGo8x5HntGw-1"/></g></g></g></svg>