<?xml version="1.0" encoding="UTF-8"?>
<!-- Do not edit this file with editors other than draw.io -->
<!DOCTYPE svg PUBLIC "-//W3C//DTD SVG 1.1//EN" "http://www.w3.org/Graphics/SVG/1.1/DTD/svg11.dtd">
<svg xmlns="http://www.w3.org/2000/svg" style="background: transparent; background-color: transparent; color-scheme: light dark;" xmlns:xlink="http://www.w3.org/1999/xlink" version="1.1" width="62px" height="62px" viewBox="0 0 62 62" content="&lt;mxfile host=&quot;app.diagrams.net&quot; scale=&quot;1&quot; border=&quot;0&quot;&gt;&#10;  &lt;diagram name=&quot;Página-1&quot; id=&quot;8etRDu4EioMWnnNYx6n3&quot;&gt;&#10;    &lt;mxGraphModel dx=&quot;885&quot; dy=&quot;-131&quot; grid=&quot;0&quot; gridSize=&quot;10&quot; guides=&quot;1&quot; tooltips=&quot;1&quot; connect=&quot;1&quot; arrows=&quot;1&quot; fold=&quot;1&quot; page=&quot;0&quot; pageScale=&quot;1&quot; pageWidth=&quot;827&quot; pageHeight=&quot;1169&quot; math=&quot;0&quot; shadow=&quot;0&quot;&gt;&#10;      &lt;root&gt;&#10;        &lt;mxCell id=&quot;0&quot; /&gt;&#10;        &lt;mxCell id=&quot;1&quot; parent=&quot;0&quot; /&gt;&#10;        &lt;mxCell id=&quot;2&quot; parent=&quot;1&quot; style=&quot;sketch=0;points=[[0,0,0],[0.25,0,0],[0.5,0,0],[0.75,0,0],[1,0,0],[0,1,0],[0.25,1,0],[0.5,1,0],[0.75,1,0],[1,1,0],[0,0.25,0],[0,0.5,0],[0,0.75,0],[1,0.25,0],[1,0.5,0],[1,0.75,0]];outlineConnect=0;fontColor=#232F3E;fillColor=#E7157B;strokeColor=#ffffff;dashed=0;verticalLabelPosition=bottom;verticalAlign=top;align=center;html=1;fontSize=12;fontStyle=0;aspect=fixed;shape=mxgraph.aws4.resourceIcon;resIcon=mxgraph.aws4.api_gateway;&quot; value=&quot;&quot; vertex=&quot;1&quot;&gt;&#10;          &lt;mxGeometry height=&quot;60&quot; width=&quot;60&quot; x=&quot;227&quot; y=&quot;1054&quot; as=&quot;geometry&quot; /&gt;&#10;        &lt;/mxCell&gt;&#10;      &lt;/root&gt;&#10;    &lt;/mxGraphModel&gt;&#10;  &lt;/diagram&gt;&#10;&lt;/mxfile&gt;&#10;"><defs/><g><g data-cell-id="0"><g data-cell-id="1"><g data-cell-id="3OdCJHqYtBplBPbDop5Z-7"/><g data-cell-id="P2HnSOVtxoNhvSpFIuC3-25"/><g data-cell-id="P2HnSOVtxoNhvSpFIuC3-1"/><g data-cell-id="f0jid7ufaLWQjPSbmyIL-44"/><g data-cell-id="f0jid7ufaLWQjPSbmyIL-52"/><g data-cell-id="f0jid7ufaLWQjPSbmyIL-55"/><g data-cell-id="f0jid7ufaLWQjPSbmyIL-42"/><g data-cell-id="f0jid7ufaLWQjPSbmyIL-62"/><g data-cell-id="f0jid7ufaLWQjPSbmyIL-78"/><g data-cell-id="f0jid7ufaLWQjPSbmyIL-75"/><g data-cell-id="f0jid7ufaLWQjPSbmyIL-77"/><g data-cell-id="f0jid7ufaLWQjPSbmyIL-83"/><g data-cell-id="f0jid7ufaLWQjPSbmyIL-84"/><g data-cell-id="f0jid7ufaLWQjPSbmyIL-68"/><g data-cell-id="f0jid7ufaLWQjPSbmyIL-69"/><g data-cell-id="f0jid7ufaLWQjPSbmyIL-67"><g data-cell-id="f0jid7ufaLWQjPSbmyIL-80"/><g data-cell-id="f0jid7ufaLWQjPSbmyIL-66"/><g data-cell-id="P2HnSOVtxoNhvSpFIuC3-35"/><g data-cell-id="P2HnSOVtxoNhvSpFIuC3-38"/></g><g data-cell-id="f0jid7ufaLWQjPSbmyIL-72"/><g data-cell-id="f0jid7ufaLWQjPSbmyIL-73"/><g data-cell-id="f0jid7ufaLWQjPSbmyIL-79"/><g data-cell-id="3OdCJHqYtBplBPbDop5Z-8"/><g data-cell-id="3OdCJHqYtBplBPbDop5Z-11"/><g data-cell-id="3OdCJHqYtBplBPbDop5Z-12"/><g data-cell-id="3OdCJHqYtBplBPbDop5Z-13"><g data-cell-id="zEQGm5ujvmd-3Wo6flh--10"/></g><g data-cell-id="3OdCJHqYtBplBPbDop5Z-17"/><g data-cell-id="f0jid7ufaLWQjPSbmyIL-88"/><g data-cell-id="3OdCJHqYtBplBPbDop5Z-20"/><g data-cell-id="f0jid7ufaLWQjPSbmyIL-86"><g transform="translate(0.5,0.5)"><path d="M 0 0 L 60 0 L 60 60 L 0 60 Z" fill="#e7157b" stroke="none" pointer-events="all" style="fill: light-dark(rgb(231, 21, 123), rgb(255, 129, 217));"/><path d="M 24.92 43.41 L 27.43 43.41 L 27.43 41.68 L 24.92 41.68 Z M 29.14 43.41 L 31.71 43.41 L 31.71 41.68 L 29.14 41.68 Z M 18.87 8.3 L 7.73 13.82 L 7.73 48.17 L 18.87 51.94 Z M 20.58 19.23 L 20.58 41.68 L 23.15 41.68 L 23.15 43.41 L 20.58 43.41 L 20.58 53.14 C 20.58 53.41 20.45 53.68 20.22 53.84 C 20.08 53.95 19.9 54 19.72 54 C 19.63 54 19.54 53.99 19.45 53.96 L 6.61 49.61 C 6.26 49.49 6.02 49.16 6.02 48.79 L 6.02 13.28 C 6.02 12.95 6.21 12.65 6.5 12.51 L 19.35 6.13 C 19.61 6 19.92 6.02 20.18 6.17 C 20.43 6.33 20.58 6.61 20.58 6.91 L 20.58 17.5 L 23.15 17.5 L 23.15 19.23 Z M 33.43 43.41 L 35.99 43.41 L 35.99 41.68 L 33.43 41.68 Z M 33.48 19.23 L 35.99 19.23 L 35.99 17.5 L 33.48 17.5 Z M 29.2 19.23 L 31.71 19.23 L 31.71 17.5 L 29.2 17.5 Z M 24.92 19.23 L 27.43 19.23 L 27.43 17.5 L 24.92 17.5 Z M 52.27 13.82 L 41.13 8.3 L 41.13 51.94 L 52.27 48.17 Z M 53.98 48.79 C 53.98 49.16 53.74 49.49 53.39 49.61 L 40.55 53.96 C 40.46 53.99 40.37 54 40.28 54 C 40.1 54 39.92 53.95 39.78 53.84 C 39.55 53.68 39.42 53.41 39.42 53.14 L 39.42 43.41 L 37.76 43.41 L 37.76 41.68 L 39.42 41.68 L 39.42 19.23 L 37.76 19.23 L 37.76 17.5 L 39.42 17.5 L 39.42 6.91 C 39.42 6.61 39.57 6.33 39.82 6.17 C 40.08 6.02 40.39 6 40.65 6.13 L 53.5 12.51 C 53.79 12.65 53.98 12.95 53.98 13.28 Z M 32.51 24.72 L 30.91 24.1 L 26.63 35.33 L 28.23 35.95 Z M 38.31 30.2 C 38.65 29.86 38.65 29.32 38.31 28.98 L 34.89 25.52 L 33.68 26.75 L 36.5 29.59 L 33.68 32.43 L 34.89 33.66 Z M 25.11 33.66 L 21.69 30.2 C 21.35 29.86 21.35 29.32 21.69 28.98 L 25.11 25.52 L 26.32 26.75 L 23.5 29.59 L 26.32 32.43 Z" fill="#ffffff" stroke="none" pointer-events="all" style="fill: light-dark(rgb(255, 255, 255), rgb(18, 18, 18));"/></g></g><g data-cell-id="3OdCJHqYtBplBPbDop5Z-6"/><g data-cell-id="f0jid7ufaLWQjPSbmyIL-85"/><g data-cell-id="P2HnSOVtxoNhvSpFIuC3-5"/><g data-cell-id="P2HnSOVtxoNhvSpFIuC3-8"/><g data-cell-id="P2HnSOVtxoNhvSpFIuC3-7"/><g data-cell-id="P2HnSOVtxoNhvSpFIuC3-11"/><g data-cell-id="P2HnSOVtxoNhvSpFIuC3-12"/><g data-cell-id="P2HnSOVtxoNhvSpFIuC3-13"/><g data-cell-id="P2HnSOVtxoNhvSpFIuC3-14"/><g data-cell-id="P2HnSOVtxoNhvSpFIuC3-15"/><g data-cell-id="P2HnSOVtxoNhvSpFIuC3-16"/><g data-cell-id="P2HnSOVtxoNhvSpFIuC3-17"/><g data-cell-id="P2HnSOVtxoNhvSpFIuC3-6"/><g data-cell-id="P2HnSOVtxoNhvSpFIuC3-18"><g data-cell-id="P2HnSOVtxoNhvSpFIuC3-19"/></g><g data-cell-id="P2HnSOVtxoNhvSpFIuC3-20"/><g data-cell-id="P2HnSOVtxoNhvSpFIuC3-21"/><g data-cell-id="P2HnSOVtxoNhvSpFIuC3-23"/><g data-cell-id="P2HnSOVtxoNhvSpFIuC3-24"/><g data-cell-id="P2HnSOVtxoNhvSpFIuC3-26"/><g data-cell-id="P2HnSOVtxoNhvSpFIuC3-31"/><g data-cell-id="P2HnSOVtxoNhvSpFIuC3-39"/><g data-cell-id="P2HnSOVtxoNhvSpFIuC3-40"/><g data-cell-id="P2HnSOVtxoNhvSpFIuC3-41"/><g data-cell-id="P2HnSOVtxoNhvSpFIuC3-42"/><g data-cell-id="P2HnSOVtxoNhvSpFIuC3-67"/><g data-cell-id="P2HnSOVtxoNhvSpFIuC3-68"/><g data-cell-id="P2HnSOVtxoNhvSpFIuC3-69"/><g data-cell-id="P2HnSOVtxoNhvSpFIuC3-70"/><g data-cell-id="P2HnSOVtxoNhvSpFIuC3-71"/><g data-cell-id="P2HnSOVtxoNhvSpFIuC3-72"/><g data-cell-id="zEQGm5ujvmd-3Wo6flh--3"/><g data-cell-id="zEQGm5ujvmd-3Wo6flh--11"/><g data-cell-id="zEQGm5ujvmd-3Wo6flh--13"/><g data-cell-id="zEQGm5ujvmd-3Wo6flh--15"/><g data-cell-id="zEQGm5ujvmd-3Wo6flh--16"/><g data-cell-id="puLAYJQTpU-C8gVqayVb-1"/><g data-cell-id="HEnMXt0etIGo8x5HntGw-1"/></g></g></g></svg>