<?xml version="1.0" encoding="UTF-8"?>
<!-- Do not edit this file with editors other than draw.io -->
<!DOCTYPE svg PUBLIC "-//W3C//DTD SVG 1.1//EN" "http://www.w3.org/Graphics/SVG/1.1/DTD/svg11.dtd">
<svg xmlns="http://www.w3.org/2000/svg" style="background: transparent; background-color: transparent; color-scheme: light dark;" xmlns:xlink="http://www.w3.org/1999/xlink" version="1.1" width="61px" height="61px" viewBox="0 0 61 61" content="&lt;mxfile host=&quot;app.diagrams.net&quot; scale=&quot;1&quot; border=&quot;0&quot;&gt;&#10;  &lt;diagram name=&quot;Página-1&quot; id=&quot;3C-hFtL-bHWxwPfEQQ1P&quot;&gt;&#10;    &lt;mxGraphModel dx=&quot;1806&quot; dy=&quot;380&quot; grid=&quot;0&quot; gridSize=&quot;10&quot; guides=&quot;1&quot; tooltips=&quot;1&quot; connect=&quot;1&quot; arrows=&quot;1&quot; fold=&quot;1&quot; page=&quot;0&quot; pageScale=&quot;1&quot; pageWidth=&quot;827&quot; pageHeight=&quot;1169&quot; math=&quot;0&quot; shadow=&quot;0&quot;&gt;&#10;      &lt;root&gt;&#10;        &lt;mxCell id=&quot;0&quot; /&gt;&#10;        &lt;mxCell id=&quot;1&quot; parent=&quot;0&quot; /&gt;&#10;        &lt;mxCell id=&quot;2&quot; parent=&quot;1&quot; style=&quot;shape=mxgraph.aws4.resourceIcon;resIcon=mxgraph.aws4.s3;fillColor=#7AA116;strokeColor=#ffffff;verticalLabelPosition=bottom;verticalAlign=top;align=center;&quot; value=&quot;&quot; vertex=&quot;1&quot;&gt;&#10;          &lt;mxGeometry height=&quot;60&quot; width=&quot;60&quot; x=&quot;1339.5&quot; y=&quot;1449&quot; as=&quot;geometry&quot; /&gt;&#10;        &lt;/mxCell&gt;&#10;      &lt;/root&gt;&#10;    &lt;/mxGraphModel&gt;&#10;  &lt;/diagram&gt;&#10;&lt;/mxfile&gt;&#10;"><defs/><g><g data-cell-id="0"><g data-cell-id="1"><g data-cell-id="3OdCJHqYtBplBPbDop5Z-7"/><g data-cell-id="P2HnSOVtxoNhvSpFIuC3-25"/><g data-cell-id="P2HnSOVtxoNhvSpFIuC3-1"/><g data-cell-id="f0jid7ufaLWQjPSbmyIL-44"/><g data-cell-id="f0jid7ufaLWQjPSbmyIL-52"/><g data-cell-id="f0jid7ufaLWQjPSbmyIL-55"/><g data-cell-id="f0jid7ufaLWQjPSbmyIL-42"/><g data-cell-id="f0jid7ufaLWQjPSbmyIL-62"/><g data-cell-id="f0jid7ufaLWQjPSbmyIL-78"/><g data-cell-id="f0jid7ufaLWQjPSbmyIL-75"/><g data-cell-id="f0jid7ufaLWQjPSbmyIL-77"/><g data-cell-id="f0jid7ufaLWQjPSbmyIL-83"/><g data-cell-id="f0jid7ufaLWQjPSbmyIL-84"/><g data-cell-id="f0jid7ufaLWQjPSbmyIL-68"/><g data-cell-id="f0jid7ufaLWQjPSbmyIL-69"/><g data-cell-id="f0jid7ufaLWQjPSbmyIL-67"><g data-cell-id="f0jid7ufaLWQjPSbmyIL-80"/><g data-cell-id="f0jid7ufaLWQjPSbmyIL-66"/><g data-cell-id="P2HnSOVtxoNhvSpFIuC3-35"/><g data-cell-id="P2HnSOVtxoNhvSpFIuC3-38"/></g><g data-cell-id="f0jid7ufaLWQjPSbmyIL-72"/><g data-cell-id="f0jid7ufaLWQjPSbmyIL-73"/><g data-cell-id="f0jid7ufaLWQjPSbmyIL-79"/><g data-cell-id="3OdCJHqYtBplBPbDop5Z-8"/><g data-cell-id="3OdCJHqYtBplBPbDop5Z-11"/><g data-cell-id="3OdCJHqYtBplBPbDop5Z-12"/><g data-cell-id="3OdCJHqYtBplBPbDop5Z-13"><g data-cell-id="zEQGm5ujvmd-3Wo6flh--10"/></g><g data-cell-id="3OdCJHqYtBplBPbDop5Z-17"/><g data-cell-id="f0jid7ufaLWQjPSbmyIL-88"/><g data-cell-id="3OdCJHqYtBplBPbDop5Z-20"/><g data-cell-id="f0jid7ufaLWQjPSbmyIL-86"/><g data-cell-id="3OdCJHqYtBplBPbDop5Z-6"/><g data-cell-id="f0jid7ufaLWQjPSbmyIL-85"/><g data-cell-id="P2HnSOVtxoNhvSpFIuC3-5"/><g data-cell-id="P2HnSOVtxoNhvSpFIuC3-8"/><g data-cell-id="P2HnSOVtxoNhvSpFIuC3-7"/><g data-cell-id="P2HnSOVtxoNhvSpFIuC3-11"/><g data-cell-id="P2HnSOVtxoNhvSpFIuC3-12"/><g data-cell-id="P2HnSOVtxoNhvSpFIuC3-13"/><g data-cell-id="P2HnSOVtxoNhvSpFIuC3-14"/><g data-cell-id="P2HnSOVtxoNhvSpFIuC3-15"/><g data-cell-id="P2HnSOVtxoNhvSpFIuC3-16"/><g data-cell-id="P2HnSOVtxoNhvSpFIuC3-17"/><g data-cell-id="P2HnSOVtxoNhvSpFIuC3-6"/><g data-cell-id="P2HnSOVtxoNhvSpFIuC3-18"><g data-cell-id="P2HnSOVtxoNhvSpFIuC3-19"/></g><g data-cell-id="P2HnSOVtxoNhvSpFIuC3-20"/><g data-cell-id="P2HnSOVtxoNhvSpFIuC3-21"/><g data-cell-id="P2HnSOVtxoNhvSpFIuC3-23"/><g data-cell-id="P2HnSOVtxoNhvSpFIuC3-24"/><g data-cell-id="P2HnSOVtxoNhvSpFIuC3-26"/><g data-cell-id="P2HnSOVtxoNhvSpFIuC3-31"/><g data-cell-id="P2HnSOVtxoNhvSpFIuC3-39"/><g data-cell-id="P2HnSOVtxoNhvSpFIuC3-40"/><g data-cell-id="P2HnSOVtxoNhvSpFIuC3-41"/><g data-cell-id="P2HnSOVtxoNhvSpFIuC3-42"/><g data-cell-id="P2HnSOVtxoNhvSpFIuC3-67"/><g data-cell-id="P2HnSOVtxoNhvSpFIuC3-68"/><g data-cell-id="P2HnSOVtxoNhvSpFIuC3-69"/><g data-cell-id="P2HnSOVtxoNhvSpFIuC3-70"/><g data-cell-id="P2HnSOVtxoNhvSpFIuC3-71"/><g data-cell-id="P2HnSOVtxoNhvSpFIuC3-72"><g transform="translate(0.5,0.5)"><path d="M 0.5 0 L 60.5 0 L 60.5 60 L 0.5 60 Z" fill="#7aa116" stroke="none" pointer-events="all" style="fill: light-dark(rgb(122, 161, 22), rgb(97, 130, 11));"/><path d="M 48.41 32.48 L 48.74 30.16 C 51.77 31.98 51.81 32.73 51.81 32.75 C 51.81 32.76 51.29 33.19 48.41 32.48 Z M 46.74 32.02 C 41.5 30.43 34.19 27.08 31.24 25.68 C 31.24 25.67 31.24 25.66 31.24 25.65 C 31.24 24.51 30.32 23.59 29.18 23.59 C 28.04 23.59 27.12 24.51 27.12 25.65 C 27.12 26.78 28.04 27.71 29.18 27.71 C 29.68 27.71 30.13 27.52 30.49 27.22 C 33.97 28.87 41.22 32.17 46.5 33.73 L 44.41 48.48 C 44.4 48.52 44.4 48.56 44.4 48.6 C 44.4 49.9 38.65 52.29 29.26 52.29 C 19.77 52.29 13.96 49.9 13.96 48.6 C 13.96 48.56 13.95 48.52 13.95 48.49 L 9.58 16.59 C 13.36 19.19 21.49 20.57 29.26 20.57 C 37.03 20.57 45.14 19.2 48.93 16.61 Z M 9.12 13.27 C 9.18 12.14 15.66 7.71 29.26 7.71 C 42.86 7.71 49.34 12.14 49.41 13.27 L 49.41 13.65 C 48.66 16.18 40.26 18.86 29.26 18.86 C 18.25 18.86 9.84 16.17 9.12 13.64 Z M 51.12 13.29 C 51.12 10.32 42.61 6 29.26 6 C 15.92 6 7.41 10.32 7.41 13.29 L 7.49 13.93 L 12.24 48.67 C 12.36 52.55 22.72 54 29.26 54 C 37.38 54 46 52.13 46.11 48.67 L 48.17 34.19 C 49.31 34.46 50.25 34.6 51.01 34.6 C 52.02 34.6 52.71 34.35 53.12 33.86 C 53.46 33.45 53.59 32.96 53.5 32.43 C 53.27 31.25 51.87 29.97 49 28.33 L 51.03 13.97 Z" fill="#ffffff" stroke="none" pointer-events="all" style="fill: light-dark(rgb(255, 255, 255), rgb(18, 18, 18));"/></g></g><g data-cell-id="zEQGm5ujvmd-3Wo6flh--3"/><g data-cell-id="zEQGm5ujvmd-3Wo6flh--11"/><g data-cell-id="zEQGm5ujvmd-3Wo6flh--13"/><g data-cell-id="zEQGm5ujvmd-3Wo6flh--15"/><g data-cell-id="zEQGm5ujvmd-3Wo6flh--16"/><g data-cell-id="puLAYJQTpU-C8gVqayVb-1"/><g data-cell-id="HEnMXt0etIGo8x5HntGw-1"/></g></g></g></svg>