<?xml version="1.0" encoding="UTF-8"?>
<!-- Do not edit this file with editors other than draw.io -->
<!DOCTYPE svg PUBLIC "-//W3C//DTD SVG 1.1//EN" "http://www.w3.org/Graphics/SVG/1.1/DTD/svg11.dtd">
<svg xmlns="http://www.w3.org/2000/svg" style="background: transparent; background-color: transparent; color-scheme: light dark;" xmlns:xlink="http://www.w3.org/1999/xlink" version="1.1" width="41px" height="41px" viewBox="0 0 41 41" content="&lt;mxfile host=&quot;app.diagrams.net&quot; scale=&quot;1&quot; border=&quot;0&quot;&gt;&#10;  &lt;diagram name=&quot;Página-1&quot; id=&quot;D6tWUQyaR9YpDdOtn7lv&quot;&gt;&#10;    &lt;mxGraphModel dx=&quot;1530&quot; dy=&quot;390&quot; grid=&quot;0&quot; gridSize=&quot;10&quot; guides=&quot;1&quot; tooltips=&quot;1&quot; connect=&quot;1&quot; arrows=&quot;1&quot; fold=&quot;1&quot; page=&quot;1&quot; pageScale=&quot;1&quot; pageWidth=&quot;827&quot; pageHeight=&quot;1169&quot; math=&quot;0&quot; shadow=&quot;0&quot;&gt;&#10;      &lt;root&gt;&#10;        &lt;mxCell id=&quot;0&quot; /&gt;&#10;        &lt;mxCell id=&quot;1&quot; parent=&quot;0&quot; /&gt;&#10;        &lt;mxCell id=&quot;2&quot; parent=&quot;1&quot; style=&quot;sketch=0;points=[[0,0,0],[0.25,0,0],[0.5,0,0],[0.75,0,0],[1,0,0],[0,1,0],[0.25,1,0],[0.5,1,0],[0.75,1,0],[1,1,0],[0,0.25,0],[0,0.5,0],[0,0.75,0],[1,0.25,0],[1,0.5,0],[1,0.75,0]];outlineConnect=0;fontColor=#232F3E;fillColor=#ED7100;strokeColor=#ffffff;dashed=0;verticalLabelPosition=bottom;verticalAlign=top;align=center;html=1;fontSize=12;fontStyle=0;aspect=fixed;shape=mxgraph.aws4.resourceIcon;resIcon=mxgraph.aws4.ec2;&quot; value=&quot;&quot; vertex=&quot;1&quot;&gt;&#10;          &lt;mxGeometry height=&quot;40&quot; width=&quot;40&quot; x=&quot;1146&quot; y=&quot;452&quot; as=&quot;geometry&quot; /&gt;&#10;        &lt;/mxCell&gt;&#10;      &lt;/root&gt;&#10;    &lt;/mxGraphModel&gt;&#10;  &lt;/diagram&gt;&#10;&lt;/mxfile&gt;&#10;"><defs/><g><g data-cell-id="0"><g data-cell-id="1"><g data-cell-id="sH8NE70pXknyVy93yeR2-112"/><g data-cell-id="sH8NE70pXknyVy93yeR2-35"/><g data-cell-id="sH8NE70pXknyVy93yeR2-36"/><g data-cell-id="sH8NE70pXknyVy93yeR2-37"/><g data-cell-id="sH8NE70pXknyVy93yeR2-38"/><g data-cell-id="sH8NE70pXknyVy93yeR2-39"/><g data-cell-id="sH8NE70pXknyVy93yeR2-40"/><g data-cell-id="sH8NE70pXknyVy93yeR2-41"/><g data-cell-id="sH8NE70pXknyVy93yeR2-42"/><g data-cell-id="sH8NE70pXknyVy93yeR2-45"/><g data-cell-id="sH8NE70pXknyVy93yeR2-98"/><g data-cell-id="sH8NE70pXknyVy93yeR2-99"/><g data-cell-id="sH8NE70pXknyVy93yeR2-102"/><g data-cell-id="sH8NE70pXknyVy93yeR2-103"/><g data-cell-id="sH8NE70pXknyVy93yeR2-104"/><g data-cell-id="sH8NE70pXknyVy93yeR2-106"/><g data-cell-id="sH8NE70pXknyVy93yeR2-107"/><g data-cell-id="H7MsbShsLABG0yul9Oqj-13"/><g data-cell-id="sH8NE70pXknyVy93yeR2-108"/><g data-cell-id="sH8NE70pXknyVy93yeR2-109"/><g data-cell-id="sH8NE70pXknyVy93yeR2-110"><g data-cell-id="sH8NE70pXknyVy93yeR2-111"/><g data-cell-id="sH8NE70pXknyVy93yeR2-113"/><g data-cell-id="HStZ4GebY4ZeIEz9XTU_-9"/><g data-cell-id="HStZ4GebY4ZeIEz9XTU_-12"/></g><g data-cell-id="sH8NE70pXknyVy93yeR2-117"/><g data-cell-id="sH8NE70pXknyVy93yeR2-118"/><g data-cell-id="sH8NE70pXknyVy93yeR2-124"/><g data-cell-id="sH8NE70pXknyVy93yeR2-125"/><g data-cell-id="sH8NE70pXknyVy93yeR2-126"/><g data-cell-id="sH8NE70pXknyVy93yeR2-127"/><g data-cell-id="sH8NE70pXknyVy93yeR2-128"/><g data-cell-id="H7MsbShsLABG0yul9Oqj-6"/><g data-cell-id="H7MsbShsLABG0yul9Oqj-7"/><g data-cell-id="sH8NE70pXknyVy93yeR2-129"/><g data-cell-id="sH8NE70pXknyVy93yeR2-130"/><g data-cell-id="sH8NE70pXknyVy93yeR2-131"/><g data-cell-id="sH8NE70pXknyVy93yeR2-133"/><g data-cell-id="sH8NE70pXknyVy93yeR2-137"/><g data-cell-id="sH8NE70pXknyVy93yeR2-147"/><g data-cell-id="sH8NE70pXknyVy93yeR2-143"/><g data-cell-id="sH8NE70pXknyVy93yeR2-144"/><g data-cell-id="sH8NE70pXknyVy93yeR2-145"/><g data-cell-id="sH8NE70pXknyVy93yeR2-146"/><g data-cell-id="sH8NE70pXknyVy93yeR2-148"/><g data-cell-id="sH8NE70pXknyVy93yeR2-149"><g data-cell-id="sH8NE70pXknyVy93yeR2-150"/><g data-cell-id="sH8NE70pXknyVy93yeR2-151"><g data-cell-id="sH8NE70pXknyVy93yeR2-152"/><g data-cell-id="sH8NE70pXknyVy93yeR2-153"/><g data-cell-id="sH8NE70pXknyVy93yeR2-167"/><g data-cell-id="sH8NE70pXknyVy93yeR2-168"/><g data-cell-id="HStZ4GebY4ZeIEz9XTU_-3"/><g data-cell-id="HStZ4GebY4ZeIEz9XTU_-4"/><g data-cell-id="HStZ4GebY4ZeIEz9XTU_-5"/><g data-cell-id="HStZ4GebY4ZeIEz9XTU_-6"/></g></g><g data-cell-id="sH8NE70pXknyVy93yeR2-156"/><g data-cell-id="sH8NE70pXknyVy93yeR2-157"/><g data-cell-id="sH8NE70pXknyVy93yeR2-158"/><g data-cell-id="sH8NE70pXknyVy93yeR2-159"/><g data-cell-id="sH8NE70pXknyVy93yeR2-160"/><g data-cell-id="sH8NE70pXknyVy93yeR2-161"/><g data-cell-id="sH8NE70pXknyVy93yeR2-162"/><g data-cell-id="sH8NE70pXknyVy93yeR2-163"/><g data-cell-id="sH8NE70pXknyVy93yeR2-164"/><g data-cell-id="sH8NE70pXknyVy93yeR2-165"/><g data-cell-id="sH8NE70pXknyVy93yeR2-166"/><g data-cell-id="H7MsbShsLABG0yul9Oqj-1"><g data-cell-id="H7MsbShsLABG0yul9Oqj-2"/></g><g data-cell-id="sH8NE70pXknyVy93yeR2-116"><g><path d="M 0 0 L 40 0 L 40 40 L 0 40 Z" fill="#ed7100" stroke="none" pointer-events="all" style="fill: light-dark(rgb(237, 113, 0), rgb(216, 109, 12));"/><path d="M 12.57 27.43 L 26.86 27.43 L 26.86 13.14 L 12.57 13.14 Z M 28 13.14 L 30.29 13.14 L 30.29 14.29 L 28 14.29 L 28 16.57 L 30.29 16.57 L 30.29 17.71 L 28 17.71 L 28 19.43 L 30.29 19.43 L 30.29 20.57 L 28 20.57 L 28 22.86 L 30.29 22.86 L 30.29 24 L 28 24 L 28 26.29 L 30.29 26.29 L 30.29 27.43 L 28 27.43 L 28 27.51 C 28 28.09 27.52 28.57 26.93 28.57 L 26.86 28.57 L 26.86 30.86 L 25.71 30.86 L 25.71 28.57 L 23.43 28.57 L 23.43 30.86 L 22.29 30.86 L 22.29 28.57 L 20.57 28.57 L 20.57 30.86 L 19.43 30.86 L 19.43 28.57 L 17.14 28.57 L 17.14 30.86 L 16 30.86 L 16 28.57 L 13.71 28.57 L 13.71 30.86 L 12.57 30.86 L 12.57 28.57 L 12.49 28.57 C 11.91 28.57 11.43 28.09 11.43 27.51 L 11.43 27.43 L 9.71 27.43 L 9.71 26.29 L 11.43 26.29 L 11.43 24 L 9.71 24 L 9.71 22.86 L 11.43 22.86 L 11.43 20.57 L 9.71 20.57 L 9.71 19.43 L 11.43 19.43 L 11.43 17.71 L 9.71 17.71 L 9.71 16.57 L 11.43 16.57 L 11.43 14.29 L 9.71 14.29 L 9.71 13.14 L 11.43 13.14 L 11.43 13.07 C 11.43 12.48 11.91 12 12.49 12 L 12.57 12 L 12.57 9.71 L 13.71 9.71 L 13.71 12 L 16 12 L 16 9.71 L 17.14 9.71 L 17.14 12 L 19.43 12 L 19.43 9.71 L 20.57 9.71 L 20.57 12 L 22.29 12 L 22.29 9.71 L 23.43 9.71 L 23.43 12 L 25.71 12 L 25.71 9.71 L 26.86 9.71 L 26.86 12 L 26.93 12 C 27.52 12 28 12.48 28 13.07 Z M 20.57 34.79 C 20.57 34.83 20.54 34.86 20.5 34.86 L 5.21 34.86 C 5.17 34.86 5.14 34.83 5.14 34.79 L 5.14 19.5 C 5.14 19.46 5.17 19.43 5.21 19.43 L 8.57 19.43 L 8.57 18.29 L 5.21 18.29 C 4.54 18.29 4 18.83 4 19.5 L 4 34.79 C 4 35.46 4.54 36 5.21 36 L 20.5 36 C 21.17 36 21.71 35.46 21.71 34.79 L 21.71 32 L 20.57 32 Z M 36 5.21 L 36 20.5 C 36 21.17 35.46 21.71 34.79 21.71 L 31.43 21.71 L 31.43 20.57 L 34.79 20.57 C 34.83 20.57 34.86 20.54 34.86 20.5 L 34.86 5.21 C 34.86 5.17 34.83 5.14 34.79 5.14 L 19.5 5.14 C 19.46 5.14 19.43 5.17 19.43 5.21 L 19.43 8.57 L 18.29 8.57 L 18.29 5.21 C 18.29 4.54 18.83 4 19.5 4 L 34.79 4 C 35.46 4 36 4.54 36 5.21 Z" fill="#ffffff" stroke="none" pointer-events="all" style="fill: light-dark(rgb(255, 255, 255), rgb(18, 18, 18));"/></g></g><g data-cell-id="H7MsbShsLABG0yul9Oqj-8"/><g data-cell-id="H7MsbShsLABG0yul9Oqj-5"/><g data-cell-id="H7MsbShsLABG0yul9Oqj-4"/><g data-cell-id="H7MsbShsLABG0yul9Oqj-10"/><g data-cell-id="H7MsbShsLABG0yul9Oqj-11"/></g></g></g></svg>