<?xml version="1.0" encoding="UTF-8"?>
<!-- Do not edit this file with editors other than draw.io -->
<!DOCTYPE svg PUBLIC "-//W3C//DTD SVG 1.1//EN" "http://www.w3.org/Graphics/SVG/1.1/DTD/svg11.dtd">
<svg xmlns="http://www.w3.org/2000/svg" style="background: transparent; background-color: transparent; color-scheme: light dark;" xmlns:xlink="http://www.w3.org/1999/xlink" version="1.1" width="52px" height="52px" viewBox="0 0 52 52" content="&lt;mxfile host=&quot;app.diagrams.net&quot; scale=&quot;1&quot; border=&quot;0&quot;&gt;&#10;  &lt;diagram name=&quot;Página-1&quot; id=&quot;RF50_PnIeVXPmhw9IDrc&quot;&gt;&#10;    &lt;mxGraphModel dx=&quot;1530&quot; dy=&quot;390&quot; grid=&quot;0&quot; gridSize=&quot;10&quot; guides=&quot;1&quot; tooltips=&quot;1&quot; connect=&quot;1&quot; arrows=&quot;1&quot; fold=&quot;1&quot; page=&quot;1&quot; pageScale=&quot;1&quot; pageWidth=&quot;827&quot; pageHeight=&quot;1169&quot; math=&quot;0&quot; shadow=&quot;0&quot;&gt;&#10;      &lt;root&gt;&#10;        &lt;mxCell id=&quot;0&quot; /&gt;&#10;        &lt;mxCell id=&quot;1&quot; parent=&quot;0&quot; /&gt;&#10;        &lt;mxCell id=&quot;2&quot; parent=&quot;1&quot; style=&quot;sketch=0;points=[[0,0,0],[0.25,0,0],[0.5,0,0],[0.75,0,0],[1,0,0],[0,1,0],[0.25,1,0],[0.5,1,0],[0.75,1,0],[1,1,0],[0,0.25,0],[0,0.5,0],[0,0.75,0],[1,0.25,0],[1,0.5,0],[1,0.75,0]];outlineConnect=0;fontColor=#232F3E;fillColor=#8C4FFF;strokeColor=#ffffff;dashed=0;verticalLabelPosition=bottom;verticalAlign=top;align=center;html=1;fontSize=12;fontStyle=0;aspect=fixed;shape=mxgraph.aws4.resourceIcon;resIcon=mxgraph.aws4.cloudfront;&quot; value=&quot;&quot; vertex=&quot;1&quot;&gt;&#10;          &lt;mxGeometry height=&quot;51&quot; width=&quot;51&quot; x=&quot;216&quot; y=&quot;604&quot; as=&quot;geometry&quot; /&gt;&#10;        &lt;/mxCell&gt;&#10;      &lt;/root&gt;&#10;    &lt;/mxGraphModel&gt;&#10;  &lt;/diagram&gt;&#10;&lt;/mxfile&gt;&#10;"><defs/><g><g data-cell-id="0"><g data-cell-id="1"><g data-cell-id="sH8NE70pXknyVy93yeR2-112"/><g data-cell-id="sH8NE70pXknyVy93yeR2-35"/><g data-cell-id="sH8NE70pXknyVy93yeR2-36"/><g data-cell-id="sH8NE70pXknyVy93yeR2-37"/><g data-cell-id="sH8NE70pXknyVy93yeR2-38"/><g data-cell-id="sH8NE70pXknyVy93yeR2-39"/><g data-cell-id="sH8NE70pXknyVy93yeR2-40"/><g data-cell-id="sH8NE70pXknyVy93yeR2-41"/><g data-cell-id="sH8NE70pXknyVy93yeR2-42"/><g data-cell-id="sH8NE70pXknyVy93yeR2-45"/><g data-cell-id="sH8NE70pXknyVy93yeR2-98"/><g data-cell-id="sH8NE70pXknyVy93yeR2-99"/><g data-cell-id="sH8NE70pXknyVy93yeR2-102"/><g data-cell-id="sH8NE70pXknyVy93yeR2-103"/><g data-cell-id="sH8NE70pXknyVy93yeR2-104"/><g data-cell-id="sH8NE70pXknyVy93yeR2-106"/><g data-cell-id="sH8NE70pXknyVy93yeR2-107"/><g data-cell-id="H7MsbShsLABG0yul9Oqj-13"/><g data-cell-id="sH8NE70pXknyVy93yeR2-108"/><g data-cell-id="sH8NE70pXknyVy93yeR2-109"/><g data-cell-id="sH8NE70pXknyVy93yeR2-110"><g data-cell-id="sH8NE70pXknyVy93yeR2-111"/><g data-cell-id="sH8NE70pXknyVy93yeR2-113"/><g data-cell-id="HStZ4GebY4ZeIEz9XTU_-9"/><g data-cell-id="HStZ4GebY4ZeIEz9XTU_-12"/></g><g data-cell-id="sH8NE70pXknyVy93yeR2-117"/><g data-cell-id="sH8NE70pXknyVy93yeR2-118"/><g data-cell-id="sH8NE70pXknyVy93yeR2-124"/><g data-cell-id="sH8NE70pXknyVy93yeR2-125"/><g data-cell-id="sH8NE70pXknyVy93yeR2-126"/><g data-cell-id="sH8NE70pXknyVy93yeR2-127"/><g data-cell-id="sH8NE70pXknyVy93yeR2-128"/><g data-cell-id="H7MsbShsLABG0yul9Oqj-6"/><g data-cell-id="H7MsbShsLABG0yul9Oqj-7"/><g data-cell-id="sH8NE70pXknyVy93yeR2-129"/><g data-cell-id="sH8NE70pXknyVy93yeR2-130"/><g data-cell-id="sH8NE70pXknyVy93yeR2-131"/><g data-cell-id="sH8NE70pXknyVy93yeR2-133"/><g data-cell-id="sH8NE70pXknyVy93yeR2-137"/><g data-cell-id="sH8NE70pXknyVy93yeR2-147"/><g data-cell-id="sH8NE70pXknyVy93yeR2-143"/><g data-cell-id="sH8NE70pXknyVy93yeR2-144"/><g data-cell-id="sH8NE70pXknyVy93yeR2-145"/><g data-cell-id="sH8NE70pXknyVy93yeR2-146"><g><path d="M 0 0 L 51 0 L 51 51 L 0 51 Z" fill="#8c4fff" stroke="none" pointer-events="all" style="fill: light-dark(rgb(140, 79, 255), rgb(177, 125, 255));"/><path d="M 36.52 34.33 C 36.52 33.13 35.54 32.15 34.33 32.15 C 33.13 32.15 32.15 33.13 32.15 34.33 C 32.15 35.54 33.13 36.52 34.33 36.52 C 35.54 36.52 36.52 35.54 36.52 34.33 Z M 37.97 34.33 C 37.97 36.34 36.34 37.98 34.33 37.98 C 32.32 37.98 30.69 36.34 30.69 34.33 C 30.69 32.32 32.32 30.69 34.33 30.69 C 36.34 30.69 37.97 32.32 37.97 34.33 Z M 18.5 23.82 C 18.5 22.61 17.52 21.63 16.31 21.63 C 15.11 21.63 14.13 22.61 14.13 23.82 C 14.13 25.02 15.11 26 16.31 26 C 17.52 26 18.5 25.02 18.5 23.82 Z M 19.96 23.82 C 19.96 25.83 18.32 27.46 16.31 27.46 C 14.31 27.46 12.67 25.83 12.67 23.82 C 12.67 21.81 14.31 20.18 16.31 20.18 C 18.32 20.18 19.96 21.81 19.96 23.82 Z M 25.3 12.39 C 25.3 13.6 26.28 14.58 27.49 14.58 C 28.69 14.58 29.67 13.6 29.67 12.39 C 29.67 11.19 28.69 10.21 27.49 10.21 C 26.28 10.21 25.3 11.19 25.3 12.39 Z M 23.85 12.39 C 23.85 10.38 25.48 8.75 27.49 8.75 C 29.5 8.75 31.13 10.38 31.13 12.39 C 31.13 14.4 29.5 16.03 27.49 16.03 C 25.48 16.03 23.85 14.4 23.85 12.39 Z M 44.44 25.5 C 44.44 18.74 40.82 12.49 34.98 9.11 C 33.93 9.32 32.92 9.61 31.66 10.07 L 31.16 8.7 C 31.82 8.46 32.41 8.27 32.98 8.11 C 30.63 7.09 28.08 6.56 25.5 6.56 C 24.27 6.56 23.06 6.68 21.88 6.92 C 22.73 7.42 23.49 7.92 24.23 8.48 L 23.35 9.64 C 22.31 8.85 21.23 8.18 19.81 7.44 C 12.66 9.69 7.51 16 6.69 23.41 C 8.19 23.1 9.63 22.94 11.23 22.9 L 11.27 24.36 C 9.59 24.4 8.15 24.57 6.58 24.92 C 6.57 25.11 6.56 25.31 6.56 25.5 C 6.56 31.81 9.68 37.62 14.81 41.13 C 13.9 38.41 13.44 35.84 13.44 33.33 C 13.44 31.9 13.69 30.72 13.95 29.48 C 14.01 29.19 14.07 28.9 14.13 28.59 L 15.56 28.88 C 15.5 29.19 15.44 29.49 15.38 29.78 C 15.12 31 14.9 32.05 14.9 33.33 C 14.9 36.18 15.52 39.12 16.8 42.32 C 19.51 43.72 22.43 44.44 25.5 44.44 C 27.51 44.44 29.47 44.12 31.34 43.51 C 32.07 42.06 32.62 40.69 33.07 39.12 L 34.47 39.53 C 34.14 40.67 33.76 41.71 33.3 42.75 C 34.48 42.22 35.59 41.57 36.63 40.8 C 36.38 40.19 36.11 39.57 35.82 38.98 L 37.12 38.33 C 37.37 38.83 37.61 39.35 37.83 39.87 C 42.04 36.26 44.44 31.08 44.44 25.5 Z M 45.9 25.5 C 45.9 31.86 43.01 37.74 37.97 41.64 C 36.73 42.61 35.37 43.41 33.94 44.06 C 33.34 44.33 32.72 44.59 32.08 44.8 C 29.99 45.53 27.77 45.9 25.5 45.9 C 22.15 45.9 18.82 45.07 15.87 43.49 C 9.23 39.93 5.1 33.04 5.1 25.5 C 5.1 25 5.11 24.62 5.14 24.27 C 5.64 15.76 11.48 8.39 19.67 5.95 C 21.54 5.39 23.5 5.1 25.5 5.1 C 29 5.1 32.45 6 35.47 7.71 C 41.9 11.31 45.9 18.13 45.9 25.5 Z M 23.54 14.91 L 22.59 13.81 C 20.95 15.24 19.68 16.75 18.2 19.03 L 19.42 19.83 C 20.82 17.66 22.02 16.24 23.54 14.91 Z M 21.33 24.35 L 20.86 25.73 C 24.2 26.88 27.12 28.71 30.04 31.5 L 31.05 30.45 C 27.97 27.51 24.88 25.57 21.33 24.35 Z M 31.07 15.79 C 33.8 19.96 35.34 24.53 35.65 29.39 L 34.19 29.48 C 33.9 24.88 32.45 20.54 29.85 16.59 Z" fill="#ffffff" stroke="none" pointer-events="all" style="fill: light-dark(rgb(255, 255, 255), rgb(18, 18, 18));"/></g></g><g data-cell-id="sH8NE70pXknyVy93yeR2-148"/><g data-cell-id="sH8NE70pXknyVy93yeR2-149"><g data-cell-id="sH8NE70pXknyVy93yeR2-150"/><g data-cell-id="sH8NE70pXknyVy93yeR2-151"><g data-cell-id="sH8NE70pXknyVy93yeR2-152"/><g data-cell-id="sH8NE70pXknyVy93yeR2-153"/><g data-cell-id="sH8NE70pXknyVy93yeR2-167"/><g data-cell-id="sH8NE70pXknyVy93yeR2-168"/><g data-cell-id="HStZ4GebY4ZeIEz9XTU_-3"/><g data-cell-id="HStZ4GebY4ZeIEz9XTU_-4"/><g data-cell-id="HStZ4GebY4ZeIEz9XTU_-5"/><g data-cell-id="HStZ4GebY4ZeIEz9XTU_-6"/></g></g><g data-cell-id="sH8NE70pXknyVy93yeR2-156"/><g data-cell-id="sH8NE70pXknyVy93yeR2-157"/><g data-cell-id="sH8NE70pXknyVy93yeR2-158"/><g data-cell-id="sH8NE70pXknyVy93yeR2-159"/><g data-cell-id="sH8NE70pXknyVy93yeR2-160"/><g data-cell-id="sH8NE70pXknyVy93yeR2-161"/><g data-cell-id="sH8NE70pXknyVy93yeR2-162"/><g data-cell-id="sH8NE70pXknyVy93yeR2-163"/><g data-cell-id="sH8NE70pXknyVy93yeR2-164"/><g data-cell-id="sH8NE70pXknyVy93yeR2-165"/><g data-cell-id="sH8NE70pXknyVy93yeR2-166"/><g data-cell-id="H7MsbShsLABG0yul9Oqj-1"><g data-cell-id="H7MsbShsLABG0yul9Oqj-2"/></g><g data-cell-id="sH8NE70pXknyVy93yeR2-116"/><g data-cell-id="H7MsbShsLABG0yul9Oqj-8"/><g data-cell-id="H7MsbShsLABG0yul9Oqj-5"/><g data-cell-id="H7MsbShsLABG0yul9Oqj-4"/><g data-cell-id="H7MsbShsLABG0yul9Oqj-10"/><g data-cell-id="H7MsbShsLABG0yul9Oqj-11"/></g></g></g></svg>