<?xml version="1.0" encoding="UTF-8"?>
<!-- Do not edit this file with editors other than draw.io -->
<!DOCTYPE svg PUBLIC "-//W3C//DTD SVG 1.1//EN" "http://www.w3.org/Graphics/SVG/1.1/DTD/svg11.dtd">
<svg xmlns="http://www.w3.org/2000/svg" style="background: transparent; background-color: transparent; color-scheme: light dark;" xmlns:xlink="http://www.w3.org/1999/xlink" version="1.1" width="61px" height="61px" viewBox="0 0 61 61" content="&lt;mxfile host=&quot;app.diagrams.net&quot; scale=&quot;1&quot; border=&quot;0&quot;&gt;&#10;  &lt;diagram name=&quot;Página-1&quot; id=&quot;0_FG6XQTP1ODcSRm0bv7&quot;&gt;&#10;    &lt;mxGraphModel dx=&quot;1103&quot; dy=&quot;-10&quot; grid=&quot;0&quot; gridSize=&quot;10&quot; guides=&quot;1&quot; tooltips=&quot;1&quot; connect=&quot;1&quot; arrows=&quot;1&quot; fold=&quot;1&quot; page=&quot;0&quot; pageScale=&quot;1&quot; pageWidth=&quot;827&quot; pageHeight=&quot;1169&quot; math=&quot;0&quot; shadow=&quot;0&quot;&gt;&#10;      &lt;root&gt;&#10;        &lt;mxCell id=&quot;0&quot; /&gt;&#10;        &lt;mxCell id=&quot;1&quot; parent=&quot;0&quot; /&gt;&#10;        &lt;mxCell id=&quot;2&quot; parent=&quot;1&quot; style=&quot;sketch=0;points=[[0,0,0],[0.25,0,0],[0.5,0,0],[0.75,0,0],[1,0,0],[0,1,0],[0.25,1,0],[0.5,1,0],[0.75,1,0],[1,1,0],[0,0.25,0],[0,0.5,0],[0,0.75,0],[1,0.25,0],[1,0.5,0],[1,0.75,0]];outlineConnect=0;fontColor=#232F3E;fillColor=#DD344C;strokeColor=#ffffff;dashed=0;verticalLabelPosition=bottom;verticalAlign=top;align=center;html=1;fontSize=12;fontStyle=0;aspect=fixed;shape=mxgraph.aws4.resourceIcon;resIcon=mxgraph.aws4.cognito;&quot; value=&quot;&quot; vertex=&quot;1&quot;&gt;&#10;          &lt;mxGeometry height=&quot;60&quot; width=&quot;60&quot; x=&quot;92&quot; y=&quot;1262&quot; as=&quot;geometry&quot; /&gt;&#10;        &lt;/mxCell&gt;&#10;      &lt;/root&gt;&#10;    &lt;/mxGraphModel&gt;&#10;  &lt;/diagram&gt;&#10;&lt;/mxfile&gt;&#10;"><defs/><g><g data-cell-id="0"><g data-cell-id="1"><g data-cell-id="3OdCJHqYtBplBPbDop5Z-7"/><g data-cell-id="P2HnSOVtxoNhvSpFIuC3-25"/><g data-cell-id="P2HnSOVtxoNhvSpFIuC3-1"/><g data-cell-id="f0jid7ufaLWQjPSbmyIL-44"/><g data-cell-id="f0jid7ufaLWQjPSbmyIL-52"/><g data-cell-id="f0jid7ufaLWQjPSbmyIL-55"/><g data-cell-id="f0jid7ufaLWQjPSbmyIL-42"/><g data-cell-id="f0jid7ufaLWQjPSbmyIL-62"/><g data-cell-id="f0jid7ufaLWQjPSbmyIL-78"/><g data-cell-id="f0jid7ufaLWQjPSbmyIL-75"/><g data-cell-id="f0jid7ufaLWQjPSbmyIL-77"/><g data-cell-id="f0jid7ufaLWQjPSbmyIL-83"/><g data-cell-id="f0jid7ufaLWQjPSbmyIL-84"/><g data-cell-id="f0jid7ufaLWQjPSbmyIL-68"/><g data-cell-id="f0jid7ufaLWQjPSbmyIL-69"/><g data-cell-id="f0jid7ufaLWQjPSbmyIL-67"><g data-cell-id="f0jid7ufaLWQjPSbmyIL-80"/><g data-cell-id="f0jid7ufaLWQjPSbmyIL-66"/><g data-cell-id="P2HnSOVtxoNhvSpFIuC3-35"/><g data-cell-id="P2HnSOVtxoNhvSpFIuC3-38"/></g><g data-cell-id="f0jid7ufaLWQjPSbmyIL-72"/><g data-cell-id="f0jid7ufaLWQjPSbmyIL-73"/><g data-cell-id="f0jid7ufaLWQjPSbmyIL-79"/><g data-cell-id="3OdCJHqYtBplBPbDop5Z-8"><g><path d="M 0 0 L 60 0 L 60 60 L 0 60 Z" fill="#dd344c" stroke="none" pointer-events="all" style="fill: light-dark(rgb(221, 52, 76), rgb(255, 127, 147));"/><path d="M 10.24 26.42 L 21.26 26.42 L 21.26 24.73 L 10.24 24.73 Z M 48.18 38.74 L 49.38 39.94 L 43.08 46.23 C 42.91 46.39 42.7 46.47 42.48 46.47 C 42.26 46.47 42.05 46.39 41.88 46.23 L 38.71 43.06 L 39.91 41.87 L 42.48 44.43 Z M 52.08 43.41 C 51.89 45 51.24 46.48 50.2 47.69 C 49.47 48.55 48.54 49.26 47.52 49.75 C 46.15 50.4 44.63 50.64 43.11 50.46 C 41.64 50.28 40.25 49.7 39.09 48.78 C 36.87 47.01 35.75 44.28 36.09 41.45 C 36.41 38.79 38.03 36.46 40.41 35.23 C 41.55 34.65 42.8 34.34 44.07 34.34 C 44.4 34.34 44.73 34.36 45.06 34.4 C 47.72 34.73 50.04 36.35 51.26 38.75 C 51.99 40.19 52.28 41.8 52.08 43.41 Z M 52.77 37.98 C 51.29 35.08 48.48 33.11 45.26 32.72 C 43.31 32.48 41.37 32.83 39.63 33.73 C 36.75 35.22 34.8 38.03 34.4 41.25 C 33.99 44.66 35.35 47.97 38.04 50.1 C 39.44 51.22 41.12 51.92 42.91 52.14 C 43.3 52.19 43.7 52.21 44.09 52.21 C 45.53 52.21 46.94 51.89 48.25 51.28 C 49.48 50.69 50.61 49.83 51.49 48.79 C 52.75 47.32 53.53 45.53 53.77 43.61 C 54 41.67 53.66 39.72 52.77 37.98 Z M 18.72 31.5 L 22.11 31.5 L 22.11 29.81 L 18.72 29.81 Z M 10.24 31.5 L 17.02 31.5 L 17.02 29.81 L 10.24 29.81 Z M 9.51 9.48 L 47.44 9.48 C 48.44 9.48 49.25 10.47 49.25 11.69 L 49.25 17.95 L 46.7 17.95 L 46.7 13.72 C 46.7 13.25 46.32 12.87 45.86 12.87 L 26.35 12.87 C 25.88 12.87 25.5 13.25 25.5 13.72 L 25.5 17.95 L 7.7 17.95 L 7.7 11.69 C 7.7 10.49 8.53 9.48 9.51 9.48 Z M 36.12 17.71 C 38.09 17.71 39.69 19.29 39.69 21.23 C 39.69 22.52 38.98 23.7 37.84 24.32 C 36.76 24.9 35.45 24.9 34.39 24.32 C 33.25 23.7 32.55 22.52 32.55 21.23 C 32.55 19.29 34.15 17.71 36.12 17.71 Z M 7.7 36.07 L 7.7 19.65 L 25.5 19.65 L 25.5 34.04 C 25.5 34.51 25.88 34.89 26.35 34.89 L 35.22 34.89 L 35.22 33.19 L 28.13 33.19 C 28.21 29.8 30.46 26.88 33.71 25.94 C 35.21 26.64 37 26.65 38.52 25.94 C 40.36 26.47 41.98 27.71 42.98 29.36 L 44.43 28.49 C 43.41 26.79 41.85 25.47 40.04 24.7 C 40.89 23.76 41.38 22.54 41.38 21.23 C 41.38 18.36 39.02 16.01 36.12 16.01 C 33.21 16.01 30.85 18.36 30.85 21.23 C 30.85 22.53 31.34 23.75 32.19 24.69 C 29.92 25.64 28.15 27.43 27.2 29.64 L 27.2 14.56 L 45.01 14.56 L 45.01 28.11 L 46.7 28.11 L 46.7 19.65 L 49.25 19.65 L 49.25 32.35 L 50.95 32.35 L 50.94 11.69 C 50.94 9.54 49.37 7.79 47.44 7.79 L 9.51 7.79 C 7.57 7.79 6 9.54 6 11.69 L 6 36.07 C 6 38.22 7.57 39.97 9.51 39.97 L 32.29 39.97 L 32.29 38.27 L 9.51 38.27 C 8.53 38.27 7.7 37.27 7.7 36.07 Z" fill="#ffffff" stroke="none" pointer-events="all" style="fill: light-dark(rgb(255, 255, 255), rgb(18, 18, 18));"/></g></g><g data-cell-id="3OdCJHqYtBplBPbDop5Z-11"/><g data-cell-id="3OdCJHqYtBplBPbDop5Z-12"/><g data-cell-id="3OdCJHqYtBplBPbDop5Z-13"><g data-cell-id="zEQGm5ujvmd-3Wo6flh--10"/></g><g data-cell-id="3OdCJHqYtBplBPbDop5Z-17"/><g data-cell-id="f0jid7ufaLWQjPSbmyIL-88"/><g data-cell-id="3OdCJHqYtBplBPbDop5Z-20"/><g data-cell-id="f0jid7ufaLWQjPSbmyIL-86"/><g data-cell-id="3OdCJHqYtBplBPbDop5Z-6"/><g data-cell-id="f0jid7ufaLWQjPSbmyIL-85"/><g data-cell-id="P2HnSOVtxoNhvSpFIuC3-5"/><g data-cell-id="P2HnSOVtxoNhvSpFIuC3-8"/><g data-cell-id="P2HnSOVtxoNhvSpFIuC3-7"/><g data-cell-id="P2HnSOVtxoNhvSpFIuC3-11"/><g data-cell-id="P2HnSOVtxoNhvSpFIuC3-12"/><g data-cell-id="P2HnSOVtxoNhvSpFIuC3-13"/><g data-cell-id="P2HnSOVtxoNhvSpFIuC3-14"/><g data-cell-id="P2HnSOVtxoNhvSpFIuC3-15"/><g data-cell-id="P2HnSOVtxoNhvSpFIuC3-16"/><g data-cell-id="P2HnSOVtxoNhvSpFIuC3-17"/><g data-cell-id="P2HnSOVtxoNhvSpFIuC3-18"><g data-cell-id="P2HnSOVtxoNhvSpFIuC3-19"/></g><g data-cell-id="P2HnSOVtxoNhvSpFIuC3-20"/><g data-cell-id="P2HnSOVtxoNhvSpFIuC3-21"/><g data-cell-id="P2HnSOVtxoNhvSpFIuC3-23"/><g data-cell-id="P2HnSOVtxoNhvSpFIuC3-24"/><g data-cell-id="P2HnSOVtxoNhvSpFIuC3-26"/><g data-cell-id="P2HnSOVtxoNhvSpFIuC3-31"/><g data-cell-id="P2HnSOVtxoNhvSpFIuC3-6"/><g data-cell-id="P2HnSOVtxoNhvSpFIuC3-39"/><g data-cell-id="P2HnSOVtxoNhvSpFIuC3-40"/><g data-cell-id="P2HnSOVtxoNhvSpFIuC3-41"/><g data-cell-id="P2HnSOVtxoNhvSpFIuC3-42"/><g data-cell-id="P2HnSOVtxoNhvSpFIuC3-67"/><g data-cell-id="P2HnSOVtxoNhvSpFIuC3-68"/><g data-cell-id="P2HnSOVtxoNhvSpFIuC3-69"/><g data-cell-id="P2HnSOVtxoNhvSpFIuC3-70"/><g data-cell-id="P2HnSOVtxoNhvSpFIuC3-71"/><g data-cell-id="P2HnSOVtxoNhvSpFIuC3-72"/><g data-cell-id="zEQGm5ujvmd-3Wo6flh--3"/><g data-cell-id="zEQGm5ujvmd-3Wo6flh--11"/><g data-cell-id="zEQGm5ujvmd-3Wo6flh--13"/><g data-cell-id="zEQGm5ujvmd-3Wo6flh--15"/><g data-cell-id="zEQGm5ujvmd-3Wo6flh--16"/><g data-cell-id="puLAYJQTpU-C8gVqayVb-1"/><g data-cell-id="HEnMXt0etIGo8x5HntGw-1"/></g></g></g></svg>