<?xml version="1.0" encoding="UTF-8"?>
<!-- Do not edit this file with editors other than draw.io -->
<!DOCTYPE svg PUBLIC "-//W3C//DTD SVG 1.1//EN" "http://www.w3.org/Graphics/SVG/1.1/DTD/svg11.dtd">
<svg xmlns="http://www.w3.org/2000/svg" style="background: transparent; background-color: transparent; color-scheme: light dark;" xmlns:xlink="http://www.w3.org/1999/xlink" version="1.1" width="35px" height="35px" viewBox="0 0 35 35" content="&lt;mxfile host=&quot;app.diagrams.net&quot; scale=&quot;1&quot; border=&quot;0&quot;&gt;&#10;  &lt;diagram name=&quot;Página-1&quot; id=&quot;iseNvCDm0gYaFp3yMxje&quot;&gt;&#10;    &lt;mxGraphModel dx=&quot;1679&quot; dy=&quot;473&quot; grid=&quot;0&quot; gridSize=&quot;10&quot; guides=&quot;1&quot; tooltips=&quot;1&quot; connect=&quot;1&quot; arrows=&quot;1&quot; fold=&quot;1&quot; page=&quot;1&quot; pageScale=&quot;1&quot; pageWidth=&quot;827&quot; pageHeight=&quot;1169&quot; math=&quot;0&quot; shadow=&quot;0&quot;&gt;&#10;      &lt;root&gt;&#10;        &lt;mxCell id=&quot;0&quot; /&gt;&#10;        &lt;mxCell id=&quot;1&quot; parent=&quot;0&quot; /&gt;&#10;        &lt;mxCell id=&quot;2&quot; parent=&quot;1&quot; style=&quot;sketch=0;outlineConnect=0;fontColor=#232F3E;gradientColor=none;fillColor=#8C4FFF;strokeColor=none;dashed=0;verticalLabelPosition=bottom;verticalAlign=top;align=center;html=1;fontSize=12;fontStyle=0;aspect=fixed;pointerEvents=1;shape=mxgraph.aws4.endpoints;&quot; value=&quot;&quot; vertex=&quot;1&quot;&gt;&#10;          &lt;mxGeometry height=&quot;35&quot; width=&quot;35&quot; x=&quot;967&quot; y=&quot;745&quot; as=&quot;geometry&quot; /&gt;&#10;        &lt;/mxCell&gt;&#10;      &lt;/root&gt;&#10;    &lt;/mxGraphModel&gt;&#10;  &lt;/diagram&gt;&#10;&lt;/mxfile&gt;&#10;"><defs/><g><g data-cell-id="0"><g data-cell-id="1"><g data-cell-id="sH8NE70pXknyVy93yeR2-112"/><g data-cell-id="sH8NE70pXknyVy93yeR2-35"/><g data-cell-id="sH8NE70pXknyVy93yeR2-36"/><g data-cell-id="sH8NE70pXknyVy93yeR2-37"/><g data-cell-id="sH8NE70pXknyVy93yeR2-38"/><g data-cell-id="sH8NE70pXknyVy93yeR2-39"/><g data-cell-id="sH8NE70pXknyVy93yeR2-40"/><g data-cell-id="sH8NE70pXknyVy93yeR2-41"/><g data-cell-id="sH8NE70pXknyVy93yeR2-42"/><g data-cell-id="sH8NE70pXknyVy93yeR2-45"/><g data-cell-id="sH8NE70pXknyVy93yeR2-98"/><g data-cell-id="sH8NE70pXknyVy93yeR2-99"/><g data-cell-id="sH8NE70pXknyVy93yeR2-102"/><g data-cell-id="sH8NE70pXknyVy93yeR2-103"/><g data-cell-id="sH8NE70pXknyVy93yeR2-104"/><g data-cell-id="sH8NE70pXknyVy93yeR2-106"/><g data-cell-id="sH8NE70pXknyVy93yeR2-107"/><g data-cell-id="H7MsbShsLABG0yul9Oqj-13"/><g data-cell-id="sH8NE70pXknyVy93yeR2-108"/><g data-cell-id="sH8NE70pXknyVy93yeR2-109"/><g data-cell-id="sH8NE70pXknyVy93yeR2-110"><g data-cell-id="sH8NE70pXknyVy93yeR2-111"/><g data-cell-id="sH8NE70pXknyVy93yeR2-113"/><g data-cell-id="HStZ4GebY4ZeIEz9XTU_-9"/><g data-cell-id="HStZ4GebY4ZeIEz9XTU_-12"/></g><g data-cell-id="sH8NE70pXknyVy93yeR2-117"/><g data-cell-id="sH8NE70pXknyVy93yeR2-118"/><g data-cell-id="sH8NE70pXknyVy93yeR2-124"/><g data-cell-id="sH8NE70pXknyVy93yeR2-125"/><g data-cell-id="sH8NE70pXknyVy93yeR2-126"/><g data-cell-id="sH8NE70pXknyVy93yeR2-127"/><g data-cell-id="sH8NE70pXknyVy93yeR2-128"/><g data-cell-id="H7MsbShsLABG0yul9Oqj-6"/><g data-cell-id="H7MsbShsLABG0yul9Oqj-7"/><g data-cell-id="sH8NE70pXknyVy93yeR2-129"/><g data-cell-id="sH8NE70pXknyVy93yeR2-130"/><g data-cell-id="sH8NE70pXknyVy93yeR2-131"/><g data-cell-id="sH8NE70pXknyVy93yeR2-133"/><g data-cell-id="sH8NE70pXknyVy93yeR2-137"/><g data-cell-id="sH8NE70pXknyVy93yeR2-143"/><g data-cell-id="sH8NE70pXknyVy93yeR2-144"/><g data-cell-id="sH8NE70pXknyVy93yeR2-145"/><g data-cell-id="sH8NE70pXknyVy93yeR2-146"/><g data-cell-id="sH8NE70pXknyVy93yeR2-147"/><g data-cell-id="sH8NE70pXknyVy93yeR2-148"/><g data-cell-id="sH8NE70pXknyVy93yeR2-149"><g data-cell-id="sH8NE70pXknyVy93yeR2-150"/><g data-cell-id="sH8NE70pXknyVy93yeR2-151"><g data-cell-id="sH8NE70pXknyVy93yeR2-152"/><g data-cell-id="sH8NE70pXknyVy93yeR2-153"/><g data-cell-id="sH8NE70pXknyVy93yeR2-167"/><g data-cell-id="sH8NE70pXknyVy93yeR2-168"/><g data-cell-id="HStZ4GebY4ZeIEz9XTU_-3"/><g data-cell-id="HStZ4GebY4ZeIEz9XTU_-4"/><g data-cell-id="HStZ4GebY4ZeIEz9XTU_-5"/><g data-cell-id="HStZ4GebY4ZeIEz9XTU_-6"/></g></g><g data-cell-id="sH8NE70pXknyVy93yeR2-156"/><g data-cell-id="sH8NE70pXknyVy93yeR2-157"/><g data-cell-id="sH8NE70pXknyVy93yeR2-158"/><g data-cell-id="sH8NE70pXknyVy93yeR2-159"/><g data-cell-id="sH8NE70pXknyVy93yeR2-160"/><g data-cell-id="sH8NE70pXknyVy93yeR2-161"/><g data-cell-id="sH8NE70pXknyVy93yeR2-162"/><g data-cell-id="sH8NE70pXknyVy93yeR2-163"/><g data-cell-id="sH8NE70pXknyVy93yeR2-164"/><g data-cell-id="sH8NE70pXknyVy93yeR2-165"/><g data-cell-id="sH8NE70pXknyVy93yeR2-166"/><g data-cell-id="H7MsbShsLABG0yul9Oqj-1"><g data-cell-id="H7MsbShsLABG0yul9Oqj-2"/></g><g data-cell-id="sH8NE70pXknyVy93yeR2-116"/><g data-cell-id="H7MsbShsLABG0yul9Oqj-8"/><g data-cell-id="H7MsbShsLABG0yul9Oqj-5"><g><rect x="0" y="0" width="35" height="35" fill="none" stroke="none" pointer-events="all"/><path d="M 14.85 20.42 L 15.98 21.54 L 19.46 18.06 C 19.77 17.75 19.77 17.25 19.46 16.94 L 15.98 13.46 L 14.85 14.58 L 16.97 16.7 L 3.58 16.7 L 3.58 18.3 L 16.97 18.3 Z M 33.41 17.5 C 33.41 8.73 26.27 1.59 17.5 1.59 C 8.73 1.59 1.59 8.73 1.59 17.5 C 1.59 26.27 8.73 33.41 17.5 33.41 C 26.27 33.41 33.41 26.27 33.41 17.5 Z M 35 17.5 C 35 27.15 27.15 35 17.5 35 C 7.85 35 0 27.15 0 17.5 C 0 7.85 7.85 0 17.5 0 C 27.15 0 35 7.85 35 17.5 Z M 11.13 19.59 L 11.13 19.95 C 11.13 20 11.14 20.04 11.15 20.09 C 11.2 20.37 12.44 26.92 17.5 26.92 C 22.56 26.92 23.8 20.37 23.85 20.09 C 23.86 20.04 23.87 20 23.87 19.95 L 23.87 11.54 C 23.87 11.21 23.67 10.92 23.37 10.8 L 17.8 8.56 C 17.61 8.48 17.39 8.48 17.2 8.56 L 11.63 10.8 C 11.33 10.92 11.13 11.21 11.13 11.54 L 11.13 15.41 L 12.73 15.41 L 12.73 12.07 L 17.5 10.15 L 22.27 12.07 L 22.27 19.87 C 22.14 20.49 21.01 25.33 17.5 25.33 C 13.99 25.33 12.86 20.49 12.73 19.87 L 12.73 19.59 Z M 26.65 9.03 L 26.65 19.68 C 26.65 23.29 24.74 30.13 17.5 30.13 C 13.73 30.13 10.95 28.18 9.45 24.5 C 8.66 22.54 8.43 20.61 8.37 19.64 L 9.97 19.54 C 10.01 20.24 10.19 22.09 10.93 23.89 C 12.18 26.97 14.39 28.53 17.5 28.53 C 24.94 28.53 25.05 20.04 25.05 19.68 L 25.05 9.57 L 17.5 6.53 L 9.95 9.57 L 9.95 15.41 L 8.35 15.41 L 8.35 9.03 C 8.35 8.7 8.55 8.41 8.85 8.29 L 17.2 4.93 C 17.39 4.85 17.61 4.85 17.8 4.93 L 26.15 8.29 C 26.45 8.41 26.65 8.7 26.65 9.03 Z" fill="#8c4fff" stroke="none" pointer-events="all" style="fill: light-dark(rgb(140, 79, 255), rgb(177, 125, 255));"/></g></g><g data-cell-id="H7MsbShsLABG0yul9Oqj-4"/><g data-cell-id="H7MsbShsLABG0yul9Oqj-10"/><g data-cell-id="H7MsbShsLABG0yul9Oqj-11"/></g></g></g></svg>