<?xml version="1.0" encoding="UTF-8"?>
<!-- Do not edit this file with editors other than draw.io -->
<!DOCTYPE svg PUBLIC "-//W3C//DTD SVG 1.1//EN" "http://www.w3.org/Graphics/SVG/1.1/DTD/svg11.dtd">
<svg xmlns="http://www.w3.org/2000/svg" style="background: transparent; background-color: transparent; color-scheme: light dark;" xmlns:xlink="http://www.w3.org/1999/xlink" version="1.1" width="41px" height="41px" viewBox="0 0 41 41" content="&lt;mxfile host=&quot;app.diagrams.net&quot; scale=&quot;1&quot; border=&quot;0&quot;&gt;&#10;  &lt;diagram name=&quot;Página-1&quot; id=&quot;fZXGbqlvCW7WI7wC66eS&quot;&gt;&#10;    &lt;mxGraphModel dx=&quot;454&quot; dy=&quot;252&quot; grid=&quot;0&quot; gridSize=&quot;10&quot; guides=&quot;1&quot; tooltips=&quot;1&quot; connect=&quot;1&quot; arrows=&quot;1&quot; fold=&quot;1&quot; page=&quot;0&quot; pageScale=&quot;1&quot; pageWidth=&quot;827&quot; pageHeight=&quot;1169&quot; math=&quot;0&quot; shadow=&quot;0&quot;&gt;&#10;      &lt;root&gt;&#10;        &lt;mxCell id=&quot;0&quot; /&gt;&#10;        &lt;mxCell id=&quot;1&quot; parent=&quot;0&quot; /&gt;&#10;        &lt;mxCell id=&quot;2&quot; parent=&quot;1&quot; style=&quot;sketch=0;points=[[0,0,0],[0.25,0,0],[0.5,0,0],[0.75,0,0],[1,0,0],[0,1,0],[0.25,1,0],[0.5,1,0],[0.75,1,0],[1,1,0],[0,0.25,0],[0,0.5,0],[0,0.75,0],[1,0.25,0],[1,0.5,0],[1,0.75,0]];outlineConnect=0;fontColor=#232F3E;fillColor=#ED7100;strokeColor=#ffffff;dashed=0;verticalLabelPosition=bottom;verticalAlign=top;align=center;html=1;fontSize=12;fontStyle=0;aspect=fixed;shape=mxgraph.aws4.resourceIcon;resIcon=mxgraph.aws4.ec2;&quot; value=&quot;&quot; vertex=&quot;1&quot;&gt;&#10;          &lt;mxGeometry height=&quot;40&quot; width=&quot;40&quot; x=&quot;3120.59&quot; y=&quot;357&quot; as=&quot;geometry&quot; /&gt;&#10;        &lt;/mxCell&gt;&#10;      &lt;/root&gt;&#10;    &lt;/mxGraphModel&gt;&#10;  &lt;/diagram&gt;&#10;&lt;/mxfile&gt;&#10;"><defs/><g><g data-cell-id="PxmAVbPLhMlB9iA3R-Vg-0"><g data-cell-id="PxmAVbPLhMlB9iA3R-Vg-1"><g data-cell-id="PxmAVbPLhMlB9iA3R-Vg-2"/><g data-cell-id="PxmAVbPLhMlB9iA3R-Vg-3"/><g data-cell-id="PxmAVbPLhMlB9iA3R-Vg-4"/><g data-cell-id="PxmAVbPLhMlB9iA3R-Vg-5"/><g data-cell-id="PxmAVbPLhMlB9iA3R-Vg-6"/><g data-cell-id="PxmAVbPLhMlB9iA3R-Vg-7"/><g data-cell-id="PxmAVbPLhMlB9iA3R-Vg-8"/><g data-cell-id="PxmAVbPLhMlB9iA3R-Vg-9"><g data-cell-id="PxmAVbPLhMlB9iA3R-Vg-10"><g data-cell-id="PxmAVbPLhMlB9iA3R-Vg-11"/><g data-cell-id="PxmAVbPLhMlB9iA3R-Vg-12"/><g data-cell-id="PxmAVbPLhMlB9iA3R-Vg-13"/><g data-cell-id="PxmAVbPLhMlB9iA3R-Vg-14"/><g data-cell-id="PxmAVbPLhMlB9iA3R-Vg-15"/><g data-cell-id="PxmAVbPLhMlB9iA3R-Vg-16"/><g data-cell-id="PxmAVbPLhMlB9iA3R-Vg-17"/><g data-cell-id="PxmAVbPLhMlB9iA3R-Vg-18"/><g data-cell-id="PxmAVbPLhMlB9iA3R-Vg-19"/><g data-cell-id="PxmAVbPLhMlB9iA3R-Vg-20"/><g data-cell-id="PxmAVbPLhMlB9iA3R-Vg-21"/><g data-cell-id="PxmAVbPLhMlB9iA3R-Vg-22"/><g data-cell-id="PxmAVbPLhMlB9iA3R-Vg-23"/><g data-cell-id="PxmAVbPLhMlB9iA3R-Vg-24"/><g data-cell-id="PxmAVbPLhMlB9iA3R-Vg-25"/><g data-cell-id="PxmAVbPLhMlB9iA3R-Vg-26"/><g data-cell-id="PxmAVbPLhMlB9iA3R-Vg-27"/></g><g data-cell-id="PxmAVbPLhMlB9iA3R-Vg-28"><g data-cell-id="PxmAVbPLhMlB9iA3R-Vg-29"/><g data-cell-id="PxmAVbPLhMlB9iA3R-Vg-30"/><g data-cell-id="PxmAVbPLhMlB9iA3R-Vg-31"/><g data-cell-id="PxmAVbPLhMlB9iA3R-Vg-32"/><g data-cell-id="PxmAVbPLhMlB9iA3R-Vg-33"/><g data-cell-id="PxmAVbPLhMlB9iA3R-Vg-34"/><g data-cell-id="PxmAVbPLhMlB9iA3R-Vg-35"/><g data-cell-id="PxmAVbPLhMlB9iA3R-Vg-36"/><g data-cell-id="PxmAVbPLhMlB9iA3R-Vg-37"/><g data-cell-id="PxmAVbPLhMlB9iA3R-Vg-38"/><g data-cell-id="PxmAVbPLhMlB9iA3R-Vg-39"/><g data-cell-id="PxmAVbPLhMlB9iA3R-Vg-40"/><g data-cell-id="PxmAVbPLhMlB9iA3R-Vg-41"/></g><g data-cell-id="PxmAVbPLhMlB9iA3R-Vg-42"><g data-cell-id="PxmAVbPLhMlB9iA3R-Vg-43"/><g data-cell-id="PxmAVbPLhMlB9iA3R-Vg-44"/><g data-cell-id="PxmAVbPLhMlB9iA3R-Vg-45"/><g data-cell-id="PxmAVbPLhMlB9iA3R-Vg-46"/><g data-cell-id="PxmAVbPLhMlB9iA3R-Vg-47"/><g data-cell-id="PxmAVbPLhMlB9iA3R-Vg-48"/><g data-cell-id="PxmAVbPLhMlB9iA3R-Vg-49"/><g data-cell-id="PxmAVbPLhMlB9iA3R-Vg-50"/><g data-cell-id="PxmAVbPLhMlB9iA3R-Vg-51"/><g data-cell-id="PxmAVbPLhMlB9iA3R-Vg-52"/><g data-cell-id="PxmAVbPLhMlB9iA3R-Vg-53"/></g><g data-cell-id="PxmAVbPLhMlB9iA3R-Vg-54"><g data-cell-id="PxmAVbPLhMlB9iA3R-Vg-55"/><g data-cell-id="PxmAVbPLhMlB9iA3R-Vg-56"/><g data-cell-id="PxmAVbPLhMlB9iA3R-Vg-57"/><g data-cell-id="PxmAVbPLhMlB9iA3R-Vg-58"/><g data-cell-id="PxmAVbPLhMlB9iA3R-Vg-59"/><g data-cell-id="PxmAVbPLhMlB9iA3R-Vg-60"/><g data-cell-id="PxmAVbPLhMlB9iA3R-Vg-61"/><g data-cell-id="PxmAVbPLhMlB9iA3R-Vg-62"/><g data-cell-id="PxmAVbPLhMlB9iA3R-Vg-63"/><g data-cell-id="PxmAVbPLhMlB9iA3R-Vg-64"/><g data-cell-id="PxmAVbPLhMlB9iA3R-Vg-65"/><g data-cell-id="PxmAVbPLhMlB9iA3R-Vg-66"/><g data-cell-id="PxmAVbPLhMlB9iA3R-Vg-67"/><g data-cell-id="NsLmJX-dbmGEkNe_aY8y-15"/><g data-cell-id="NsLmJX-dbmGEkNe_aY8y-16"/></g><g data-cell-id="PxmAVbPLhMlB9iA3R-Vg-68"><g data-cell-id="PxmAVbPLhMlB9iA3R-Vg-69"/><g data-cell-id="PxmAVbPLhMlB9iA3R-Vg-70"/><g data-cell-id="PxmAVbPLhMlB9iA3R-Vg-71"/><g data-cell-id="PxmAVbPLhMlB9iA3R-Vg-72"/><g data-cell-id="PxmAVbPLhMlB9iA3R-Vg-73"/></g><g data-cell-id="PxmAVbPLhMlB9iA3R-Vg-74"><g data-cell-id="PxmAVbPLhMlB9iA3R-Vg-75"/><g data-cell-id="PxmAVbPLhMlB9iA3R-Vg-76"/><g data-cell-id="PxmAVbPLhMlB9iA3R-Vg-77"/><g data-cell-id="PxmAVbPLhMlB9iA3R-Vg-78"/><g data-cell-id="PxmAVbPLhMlB9iA3R-Vg-79"/></g><g data-cell-id="PxmAVbPLhMlB9iA3R-Vg-80"><g data-cell-id="PxmAVbPLhMlB9iA3R-Vg-81"/><g data-cell-id="PxmAVbPLhMlB9iA3R-Vg-82"/><g data-cell-id="PxmAVbPLhMlB9iA3R-Vg-83"/><g data-cell-id="PxmAVbPLhMlB9iA3R-Vg-84"/><g data-cell-id="PxmAVbPLhMlB9iA3R-Vg-85"/><g data-cell-id="PxmAVbPLhMlB9iA3R-Vg-86"/><g data-cell-id="PxmAVbPLhMlB9iA3R-Vg-87"/><g data-cell-id="PxmAVbPLhMlB9iA3R-Vg-88"/><g data-cell-id="PxmAVbPLhMlB9iA3R-Vg-89"/><g data-cell-id="PxmAVbPLhMlB9iA3R-Vg-90"/><g data-cell-id="PxmAVbPLhMlB9iA3R-Vg-91"/></g><g data-cell-id="nJxszqtCFTRBtprBdnuG-251"><g data-cell-id="nJxszqtCFTRBtprBdnuG-252"/><g data-cell-id="nJxszqtCFTRBtprBdnuG-253"/><g data-cell-id="nJxszqtCFTRBtprBdnuG-254"/><g data-cell-id="nJxszqtCFTRBtprBdnuG-255"/><g data-cell-id="nJxszqtCFTRBtprBdnuG-256"/><g data-cell-id="nJxszqtCFTRBtprBdnuG-257"/></g></g><g data-cell-id="PxmAVbPLhMlB9iA3R-Vg-100"/><g data-cell-id="PxmAVbPLhMlB9iA3R-Vg-101"><g data-cell-id="PxmAVbPLhMlB9iA3R-Vg-102"><g transform="translate(0.5,0.5)"><path d="M -0.41 0 L 39.59 0 L 39.59 40 L -0.41 40 Z" fill="#ed7100" stroke="none" pointer-events="all" style="fill: light-dark(rgb(237, 113, 0), rgb(216, 109, 12));"/><path d="M 12.16 27.43 L 26.45 27.43 L 26.45 13.14 L 12.16 13.14 Z M 27.59 13.14 L 29.88 13.14 L 29.88 14.29 L 27.59 14.29 L 27.59 16.57 L 29.88 16.57 L 29.88 17.71 L 27.59 17.71 L 27.59 19.43 L 29.88 19.43 L 29.88 20.57 L 27.59 20.57 L 27.59 22.86 L 29.88 22.86 L 29.88 24 L 27.59 24 L 27.59 26.29 L 29.88 26.29 L 29.88 27.43 L 27.59 27.43 L 27.59 27.51 C 27.59 28.09 27.11 28.57 26.52 28.57 L 26.45 28.57 L 26.45 30.86 L 25.3 30.86 L 25.3 28.57 L 23.02 28.57 L 23.02 30.86 L 21.88 30.86 L 21.88 28.57 L 20.16 28.57 L 20.16 30.86 L 19.02 30.86 L 19.02 28.57 L 16.73 28.57 L 16.73 30.86 L 15.59 30.86 L 15.59 28.57 L 13.3 28.57 L 13.3 30.86 L 12.16 30.86 L 12.16 28.57 L 12.08 28.57 C 11.5 28.57 11.02 28.09 11.02 27.51 L 11.02 27.43 L 9.3 27.43 L 9.3 26.29 L 11.02 26.29 L 11.02 24 L 9.3 24 L 9.3 22.86 L 11.02 22.86 L 11.02 20.57 L 9.3 20.57 L 9.3 19.43 L 11.02 19.43 L 11.02 17.71 L 9.3 17.71 L 9.3 16.57 L 11.02 16.57 L 11.02 14.29 L 9.3 14.29 L 9.3 13.14 L 11.02 13.14 L 11.02 13.07 C 11.02 12.48 11.5 12 12.08 12 L 12.16 12 L 12.16 9.71 L 13.3 9.71 L 13.3 12 L 15.59 12 L 15.59 9.71 L 16.73 9.71 L 16.73 12 L 19.02 12 L 19.02 9.71 L 20.16 9.71 L 20.16 12 L 21.88 12 L 21.88 9.71 L 23.02 9.71 L 23.02 12 L 25.3 12 L 25.3 9.71 L 26.45 9.71 L 26.45 12 L 26.52 12 C 27.11 12 27.59 12.48 27.59 13.07 Z M 20.16 34.79 C 20.16 34.83 20.13 34.86 20.09 34.86 L 4.8 34.86 C 4.76 34.86 4.73 34.83 4.73 34.79 L 4.73 19.5 C 4.73 19.46 4.76 19.43 4.8 19.43 L 8.16 19.43 L 8.16 18.29 L 4.8 18.29 C 4.13 18.29 3.59 18.83 3.59 19.5 L 3.59 34.79 C 3.59 35.46 4.13 36 4.8 36 L 20.09 36 C 20.76 36 21.3 35.46 21.3 34.79 L 21.3 32 L 20.16 32 Z M 35.59 5.21 L 35.59 20.5 C 35.59 21.17 35.05 21.71 34.38 21.71 L 31.02 21.71 L 31.02 20.57 L 34.38 20.57 C 34.42 20.57 34.45 20.54 34.45 20.5 L 34.45 5.21 C 34.45 5.17 34.42 5.14 34.38 5.14 L 19.09 5.14 C 19.05 5.14 19.02 5.17 19.02 5.21 L 19.02 8.57 L 17.88 8.57 L 17.88 5.21 C 17.88 4.54 18.42 4 19.09 4 L 34.38 4 C 35.05 4 35.59 4.54 35.59 5.21 Z" fill="#ffffff" stroke="none" pointer-events="all" style="fill: light-dark(rgb(255, 255, 255), rgb(18, 18, 18));"/></g></g></g><g data-cell-id="PxmAVbPLhMlB9iA3R-Vg-103"/><g data-cell-id="PxmAVbPLhMlB9iA3R-Vg-104"/><g data-cell-id="PxmAVbPLhMlB9iA3R-Vg-105"/><g data-cell-id="PxmAVbPLhMlB9iA3R-Vg-106"/><g data-cell-id="PxmAVbPLhMlB9iA3R-Vg-107"/><g data-cell-id="PxmAVbPLhMlB9iA3R-Vg-108"/><g data-cell-id="PxmAVbPLhMlB9iA3R-Vg-109"/><g data-cell-id="PxmAVbPLhMlB9iA3R-Vg-110"/><g data-cell-id="PxmAVbPLhMlB9iA3R-Vg-111"/><g data-cell-id="PxmAVbPLhMlB9iA3R-Vg-112"/><g data-cell-id="PxmAVbPLhMlB9iA3R-Vg-113"/><g data-cell-id="PxmAVbPLhMlB9iA3R-Vg-114"/><g data-cell-id="PxmAVbPLhMlB9iA3R-Vg-115"/><g data-cell-id="PxmAVbPLhMlB9iA3R-Vg-116"/><g data-cell-id="PxmAVbPLhMlB9iA3R-Vg-117"/><g data-cell-id="PxmAVbPLhMlB9iA3R-Vg-118"/><g data-cell-id="PxmAVbPLhMlB9iA3R-Vg-119"/><g data-cell-id="PxmAVbPLhMlB9iA3R-Vg-120"/><g data-cell-id="PxmAVbPLhMlB9iA3R-Vg-121"/><g data-cell-id="PxmAVbPLhMlB9iA3R-Vg-122"/><g data-cell-id="PxmAVbPLhMlB9iA3R-Vg-123"><g data-cell-id="PxmAVbPLhMlB9iA3R-Vg-124"/></g><g data-cell-id="PxmAVbPLhMlB9iA3R-Vg-125"><g data-cell-id="PxmAVbPLhMlB9iA3R-Vg-126"/></g><g data-cell-id="PxmAVbPLhMlB9iA3R-Vg-127"><g data-cell-id="PxmAVbPLhMlB9iA3R-Vg-128"/></g><g data-cell-id="PxmAVbPLhMlB9iA3R-Vg-129"/><g data-cell-id="PxmAVbPLhMlB9iA3R-Vg-130"/><g data-cell-id="PxmAVbPLhMlB9iA3R-Vg-131"/><g data-cell-id="PxmAVbPLhMlB9iA3R-Vg-132"><g data-cell-id="PxmAVbPLhMlB9iA3R-Vg-133"/></g><g data-cell-id="PxmAVbPLhMlB9iA3R-Vg-134"/><g data-cell-id="PxmAVbPLhMlB9iA3R-Vg-135"/><g data-cell-id="PxmAVbPLhMlB9iA3R-Vg-136"/><g data-cell-id="PxmAVbPLhMlB9iA3R-Vg-137"/><g data-cell-id="PxmAVbPLhMlB9iA3R-Vg-138"/><g data-cell-id="PxmAVbPLhMlB9iA3R-Vg-139"/><g data-cell-id="PxmAVbPLhMlB9iA3R-Vg-140"/><g data-cell-id="PxmAVbPLhMlB9iA3R-Vg-141"/><g data-cell-id="PxmAVbPLhMlB9iA3R-Vg-142"/><g data-cell-id="PxmAVbPLhMlB9iA3R-Vg-143"/><g data-cell-id="PxmAVbPLhMlB9iA3R-Vg-144"/><g data-cell-id="PxmAVbPLhMlB9iA3R-Vg-145"/><g data-cell-id="PxmAVbPLhMlB9iA3R-Vg-146"/><g data-cell-id="PxmAVbPLhMlB9iA3R-Vg-147"/><g data-cell-id="PxmAVbPLhMlB9iA3R-Vg-148"/><g data-cell-id="PxmAVbPLhMlB9iA3R-Vg-149"/><g data-cell-id="PxmAVbPLhMlB9iA3R-Vg-150"/><g data-cell-id="PxmAVbPLhMlB9iA3R-Vg-151"/><g data-cell-id="PxmAVbPLhMlB9iA3R-Vg-152"/><g data-cell-id="PxmAVbPLhMlB9iA3R-Vg-153"/><g data-cell-id="PxmAVbPLhMlB9iA3R-Vg-154"/><g data-cell-id="PxmAVbPLhMlB9iA3R-Vg-155"/><g data-cell-id="PxmAVbPLhMlB9iA3R-Vg-156"><g data-cell-id="PxmAVbPLhMlB9iA3R-Vg-157"/></g><g data-cell-id="PxmAVbPLhMlB9iA3R-Vg-158"/><g data-cell-id="PxmAVbPLhMlB9iA3R-Vg-159"><g data-cell-id="PxmAVbPLhMlB9iA3R-Vg-160"/></g><g data-cell-id="PxmAVbPLhMlB9iA3R-Vg-166"/><g data-cell-id="lI5LuBCXj72M5lcWs_fC-0"/></g></g></g></svg>