<?xml version="1.0" encoding="UTF-8"?>
<!-- Do not edit this file with editors other than draw.io -->
<!DOCTYPE svg PUBLIC "-//W3C//DTD SVG 1.1//EN" "http://www.w3.org/Graphics/SVG/1.1/DTD/svg11.dtd">
<svg xmlns="http://www.w3.org/2000/svg" style="background: transparent; background-color: transparent; color-scheme: light dark;" xmlns:xlink="http://www.w3.org/1999/xlink" version="1.1" width="41px" height="46px" viewBox="0 0 41 46" content="&lt;mxfile host=&quot;app.diagrams.net&quot; scale=&quot;1&quot; border=&quot;0&quot;&gt;&#10;  &lt;diagram name=&quot;Página-1&quot; id=&quot;9wbV-NhUaTQGKySVooei&quot;&gt;&#10;    &lt;mxGraphModel dx=&quot;-1535&quot; dy=&quot;446&quot; grid=&quot;1&quot; gridSize=&quot;10&quot; guides=&quot;1&quot; tooltips=&quot;1&quot; connect=&quot;1&quot; arrows=&quot;1&quot; fold=&quot;1&quot; page=&quot;1&quot; pageScale=&quot;1&quot; pageWidth=&quot;1169&quot; pageHeight=&quot;827&quot; math=&quot;0&quot; shadow=&quot;0&quot;&gt;&#10;      &lt;root&gt;&#10;        &lt;mxCell id=&quot;0&quot; /&gt;&#10;        &lt;mxCell id=&quot;1&quot; parent=&quot;0&quot; /&gt;&#10;        &lt;mxCell id=&quot;2&quot; parent=&quot;1&quot; style=&quot;outlineConnect=0;dashed=0;verticalLabelPosition=bottom;verticalAlign=top;align=center;html=1;shape=mxgraph.aws3.http_protocol;fillColor=#5294CF;gradientColor=none;&quot; value=&quot;&quot; vertex=&quot;1&quot;&gt;&#10;          &lt;mxGeometry height=&quot;45&quot; width=&quot;40&quot; x=&quot;4580&quot; y=&quot;680&quot; as=&quot;geometry&quot; /&gt;&#10;        &lt;/mxCell&gt;&#10;      &lt;/root&gt;&#10;    &lt;/mxGraphModel&gt;&#10;  &lt;/diagram&gt;&#10;&lt;/mxfile&gt;&#10;"><defs/><g><g data-cell-id="0"><g data-cell-id="1"><g data-cell-id="G_nE93u9n-B-lsNTsYu3-1"/><g data-cell-id="G_nE93u9n-B-lsNTsYu3-2"/><g data-cell-id="zhKt3fNSLgRZPjDAheu--1"/><g data-cell-id="UvL_e13xT3raBQWUSXP_-1"/><g data-cell-id="GsSff52rk4mW3boRFP0h-7"/><g data-cell-id="GsSff52rk4mW3boRFP0h-9"/><g data-cell-id="ZdjWKGI6bNVlR5FEHZFW-1"/><g data-cell-id="ZdjWKGI6bNVlR5FEHZFW-3"/><g data-cell-id="bX_caWo315ZGvje-jDk6-1"/><g data-cell-id="Y_fi08IE4hqae7w_Tzpa-50"/><g data-cell-id="5oGYHbYtzKlPw1tetjBF-1"/><g data-cell-id="WDzIs54vf-4zkKUbdtyc-37"/><g data-cell-id="1WoK9DH8LehlSpO7o1Ps-2"/><g data-cell-id="1WoK9DH8LehlSpO7o1Ps-5"/><g data-cell-id="1WoK9DH8LehlSpO7o1Ps-6"/><g data-cell-id="1WoK9DH8LehlSpO7o1Ps-7"/><g data-cell-id="1WoK9DH8LehlSpO7o1Ps-8"/><g data-cell-id="1WoK9DH8LehlSpO7o1Ps-9"/><g data-cell-id="1WoK9DH8LehlSpO7o1Ps-10"/><g data-cell-id="-kmVXlDiMHHaOPHUomdn-1"/><g data-cell-id="KTjtkFEQTRu0PTSYvWHU-1"/><g data-cell-id="rGORHgAdceWWBniuG1m0-1"/><g data-cell-id="vrxTuX8FkNkkHSooEGDv-1"/><g data-cell-id="F8C5W64Wgj4YblldRyXc-8"/><g data-cell-id="eb3jSgFVWkLo57E214wc-1"/><g data-cell-id="eb3jSgFVWkLo57E214wc-2"/><g data-cell-id="eb3jSgFVWkLo57E214wc-3"/><g data-cell-id="eb3jSgFVWkLo57E214wc-4"/><g data-cell-id="eb3jSgFVWkLo57E214wc-5"/><g data-cell-id="eb3jSgFVWkLo57E214wc-6"/><g data-cell-id="eb3jSgFVWkLo57E214wc-7"/><g data-cell-id="eb3jSgFVWkLo57E214wc-8"/><g data-cell-id="eb3jSgFVWkLo57E214wc-9"/><g data-cell-id="eb3jSgFVWkLo57E214wc-10"/><g data-cell-id="eb3jSgFVWkLo57E214wc-11"/><g data-cell-id="eb3jSgFVWkLo57E214wc-12"/><g data-cell-id="eb3jSgFVWkLo57E214wc-13"/><g data-cell-id="eb3jSgFVWkLo57E214wc-14"/><g data-cell-id="eb3jSgFVWkLo57E214wc-15"/><g data-cell-id="eb3jSgFVWkLo57E214wc-16"/><g data-cell-id="eb3jSgFVWkLo57E214wc-17"/><g data-cell-id="eb3jSgFVWkLo57E214wc-18"/><g data-cell-id="eb3jSgFVWkLo57E214wc-19"/><g data-cell-id="eb3jSgFVWkLo57E214wc-20"/><g data-cell-id="eb3jSgFVWkLo57E214wc-21"/><g data-cell-id="eb3jSgFVWkLo57E214wc-22"/><g data-cell-id="eb3jSgFVWkLo57E214wc-23"/><g data-cell-id="eb3jSgFVWkLo57E214wc-24"/><g data-cell-id="eb3jSgFVWkLo57E214wc-25"/><g data-cell-id="eb3jSgFVWkLo57E214wc-27"/><g data-cell-id="eb3jSgFVWkLo57E214wc-28"/><g data-cell-id="eb3jSgFVWkLo57E214wc-29"/><g data-cell-id="eb3jSgFVWkLo57E214wc-30"/><g data-cell-id="eb3jSgFVWkLo57E214wc-31"/><g data-cell-id="eb3jSgFVWkLo57E214wc-33"/><g data-cell-id="eb3jSgFVWkLo57E214wc-34"/><g data-cell-id="eb3jSgFVWkLo57E214wc-35"/><g data-cell-id="eb3jSgFVWkLo57E214wc-36"/><g data-cell-id="eb3jSgFVWkLo57E214wc-37"/><g data-cell-id="eb3jSgFVWkLo57E214wc-38"/><g data-cell-id="eb3jSgFVWkLo57E214wc-39"/><g data-cell-id="eb3jSgFVWkLo57E214wc-40"><g><path d="M 13.74 42.83 L 6.47 42.83 C 2.77 42.83 0 39.44 0 35.92 L 0 6.84 C 0 3.16 3.06 0 6.42 0 L 31.68 0 C 34.96 0 38.13 2.93 38.13 7.1 L 38.13 30.79 L 40 30.79 L 40 45 L 15.54 45 L 15.54 30.79 L 13.74 30.79 Z" fill="#5294cf" stroke="none" pointer-events="all" style="fill: light-dark(rgb(82, 148, 207), rgb(70, 127, 178));"/><path d="M 13.74 30.79 L 13.74 28.87 L 38.13 28.87 L 38.13 30.79 Z M 15.54 45 L 15.54 43.06 L 40 43.06 L 40 45 Z M 13.74 42.83 L 6.47 42.83 C 2.77 42.83 0 39.44 0 35.92 L 0 34.07 C 0 37.45 2.74 40.91 6.55 40.91 L 13.74 40.91 Z" fill-opacity="0.3" fill="#000000" stroke="none" pointer-events="all" style="fill: light-dark(rgb(0, 0, 0), rgb(237, 237, 237));"/><rect x="0" y="0" width="0" height="0" fill="none" stroke="#000000" pointer-events="all" style="stroke: light-dark(rgb(0, 0, 0), rgb(255, 255, 255));"/><path d="M 35.43 36.66 L 36.29 36.66 C 36.81 36.64 37.22 36.39 37.39 35.88 C 37.55 35.37 37.49 34.69 37.29 34.34 C 37.06 33.91 36.56 33.85 36.25 33.85 L 35.43 33.85 Z M 34.21 41.06 L 34.21 32.8 L 36.65 32.8 C 37.54 32.8 38.47 33.22 38.71 34.44 C 38.87 35.25 38.77 36.28 38.26 36.9 C 37.84 37.43 37.25 37.67 36.5 37.66 L 35.43 37.66 L 35.43 41.06 Z M 30 41.06 L 30 33.85 L 28.12 33.85 L 28.12 32.8 L 33.02 32.8 L 33.02 33.85 L 31.21 33.85 L 31.21 41.06 Z M 24.53 41.06 L 24.53 33.85 L 22.66 33.85 L 22.66 32.8 L 27.55 32.8 L 27.55 33.85 L 25.75 33.85 L 25.75 41.06 Z M 16.83 41.06 L 16.83 32.8 L 18.05 32.8 L 18.05 36.12 L 20.35 36.12 L 20.35 32.8 L 21.58 32.8 L 21.58 41.06 L 20.35 41.06 L 20.35 37.2 L 18.05 37.2 L 18.05 41.06 Z" fill="#ffffff" stroke="none" pointer-events="all" style="fill: light-dark(rgb(255, 255, 255), rgb(18, 18, 18));"/></g></g><g data-cell-id="eb3jSgFVWkLo57E214wc-41"/><g data-cell-id="eb3jSgFVWkLo57E214wc-42"/><g data-cell-id="eb3jSgFVWkLo57E214wc-43"/><g data-cell-id="eb3jSgFVWkLo57E214wc-44"/><g data-cell-id="eb3jSgFVWkLo57E214wc-45"/><g data-cell-id="eb3jSgFVWkLo57E214wc-46"/><g data-cell-id="eb3jSgFVWkLo57E214wc-47"/><g data-cell-id="eb3jSgFVWkLo57E214wc-48"/><g data-cell-id="eb3jSgFVWkLo57E214wc-49"/><g data-cell-id="eb3jSgFVWkLo57E214wc-50"/><g data-cell-id="eb3jSgFVWkLo57E214wc-51"/><g data-cell-id="eb3jSgFVWkLo57E214wc-52"/><g data-cell-id="eb3jSgFVWkLo57E214wc-53"/><g data-cell-id="eb3jSgFVWkLo57E214wc-54"/><g data-cell-id="eb3jSgFVWkLo57E214wc-55"/><g data-cell-id="o8hVFUvSSXmKrkMRfL1q-1"/><g data-cell-id="YwiLBD1WqPIzMWWOiwUj-2"/><g data-cell-id="YwiLBD1WqPIzMWWOiwUj-4"/><g data-cell-id="YwiLBD1WqPIzMWWOiwUj-5"/><g data-cell-id="H7reLJrxdtAiIhAkvQo9-1"/></g></g></g></svg>