<?xml version="1.0" encoding="UTF-8"?>
<!-- Do not edit this file with editors other than draw.io -->
<!DOCTYPE svg PUBLIC "-//W3C//DTD SVG 1.1//EN" "http://www.w3.org/Graphics/SVG/1.1/DTD/svg11.dtd">
<svg xmlns="http://www.w3.org/2000/svg" style="background: transparent; background-color: transparent; color-scheme: light dark;" xmlns:xlink="http://www.w3.org/1999/xlink" version="1.1" width="52px" height="51px" viewBox="0 0 52 51" content="&lt;mxfile host=&quot;app.diagrams.net&quot; scale=&quot;1&quot; border=&quot;0&quot;&gt;&#10;  &lt;diagram name=&quot;Página-1&quot; id=&quot;xzjoCHKd8MJxyrWnnjVM&quot;&gt;&#10;    &lt;mxGraphModel dx=&quot;1525&quot; dy=&quot;224&quot; grid=&quot;0&quot; gridSize=&quot;10&quot; guides=&quot;1&quot; tooltips=&quot;1&quot; connect=&quot;1&quot; arrows=&quot;1&quot; fold=&quot;1&quot; page=&quot;0&quot; pageScale=&quot;1&quot; pageWidth=&quot;827&quot; pageHeight=&quot;1169&quot; math=&quot;0&quot; shadow=&quot;0&quot;&gt;&#10;      &lt;root&gt;&#10;        &lt;mxCell id=&quot;0&quot; /&gt;&#10;        &lt;mxCell id=&quot;1&quot; parent=&quot;0&quot; /&gt;&#10;        &lt;mxCell id=&quot;2&quot; parent=&quot;1&quot; style=&quot;outlineConnect=0;dashed=0;verticalLabelPosition=bottom;verticalAlign=top;align=center;html=1;shape=mxgraph.aws3.internet_gateway;fillColor=#F58534;gradientColor=none;&quot; value=&quot;&quot; vertex=&quot;1&quot;&gt;&#10;          &lt;mxGeometry height=&quot;50&quot; width=&quot;50.5&quot; x=&quot;719.5&quot; y=&quot;673&quot; as=&quot;geometry&quot; /&gt;&#10;        &lt;/mxCell&gt;&#10;      &lt;/root&gt;&#10;    &lt;/mxGraphModel&gt;&#10;  &lt;/diagram&gt;&#10;&lt;/mxfile&gt;&#10;"><defs/><g><g data-cell-id="0"><g data-cell-id="1"><g data-cell-id="3OdCJHqYtBplBPbDop5Z-7"/><g data-cell-id="P2HnSOVtxoNhvSpFIuC3-25"/><g data-cell-id="P2HnSOVtxoNhvSpFIuC3-1"/><g data-cell-id="f0jid7ufaLWQjPSbmyIL-44"/><g data-cell-id="f0jid7ufaLWQjPSbmyIL-52"/><g data-cell-id="f0jid7ufaLWQjPSbmyIL-55"/><g data-cell-id="f0jid7ufaLWQjPSbmyIL-42"/><g data-cell-id="f0jid7ufaLWQjPSbmyIL-62"/><g data-cell-id="f0jid7ufaLWQjPSbmyIL-78"/><g data-cell-id="f0jid7ufaLWQjPSbmyIL-75"><g transform="translate(0.5,0.5)"><path d="M 25.67 50 C 11.36 50 0.51 38.82 0.51 26.46 L 0.5 23.59 C 0.5 11.41 11.24 0 25.72 0 C 40.52 0 51 11.45 51 23.75 L 51 26.51 C 51 38.35 40.52 50 25.67 50 Z" fill="#f58534" stroke="none" pointer-events="all" style="fill: light-dark(rgb(245, 133, 52), rgb(189, 92, 23));"/><path d="M 0.5 23.59 C 0.5 39.2 13.87 47.95 25.24 47.95 C 41.25 47.95 51 35.99 51 23.75 L 51 26.51 C 51 38.31 40.51 50 25.67 50 C 11.36 50 0.51 38.8 0.51 26.46 Z" fill-opacity="0.3" fill="#000000" stroke="none" pointer-events="all" style="fill: light-dark(rgb(0, 0, 0), rgb(237, 237, 237));"/><rect x="0.5" y="0" width="0" height="0" fill="none" stroke="#000000" pointer-events="all" style="stroke: light-dark(rgb(0, 0, 0), rgb(255, 255, 255));"/><path d="M 36.65 30.52 C 39.77 30.45 41.99 28.41 42.2 26.45 C 42.51 24.31 40.38 21.38 37.27 21.06 L 35.81 20.97 L 35.72 19.47 C 35.63 18.58 35.03 17.37 33.64 16.95 C 31.81 16.46 31.04 17.23 29.4 18.3 L 28.54 16.59 C 27.61 14.7 25.27 12.46 21.6 12.38 C 17.1 12.4 13.96 15.95 13.96 19.64 L 13.97 20.99 L 12.69 21.32 C 11.3 21.77 9.25 23.69 9.3 26.18 C 9.35 28.77 12.35 30.52 14.87 30.52 Z M 14.97 33.04 C 10.89 33.04 7 30.38 6.73 26.73 C 6.31 22.86 9.51 19.91 11.38 19.17 C 11.62 15.32 13.94 12.68 16.31 11.32 C 19.49 9.53 23.15 9.57 26.1 10.94 C 27.6 11.59 29.24 12.85 30.41 14.74 C 31.85 14.09 34.03 14.02 35.89 15.24 C 37.2 16.13 37.95 17.37 38.21 18.7 C 41.89 19.33 45.47 22.99 44.68 27.29 C 44.2 30.22 40.55 33.04 36.61 33.04 Z" fill="#ffffff" stroke="none" pointer-events="all" style="fill: light-dark(rgb(255, 255, 255), rgb(18, 18, 18));"/></g></g><g data-cell-id="f0jid7ufaLWQjPSbmyIL-77"/><g data-cell-id="f0jid7ufaLWQjPSbmyIL-83"/><g data-cell-id="f0jid7ufaLWQjPSbmyIL-84"/><g data-cell-id="f0jid7ufaLWQjPSbmyIL-68"/><g data-cell-id="f0jid7ufaLWQjPSbmyIL-69"/><g data-cell-id="f0jid7ufaLWQjPSbmyIL-67"><g data-cell-id="f0jid7ufaLWQjPSbmyIL-80"/><g data-cell-id="f0jid7ufaLWQjPSbmyIL-66"/><g data-cell-id="P2HnSOVtxoNhvSpFIuC3-35"/><g data-cell-id="P2HnSOVtxoNhvSpFIuC3-38"/></g><g data-cell-id="f0jid7ufaLWQjPSbmyIL-72"/><g data-cell-id="f0jid7ufaLWQjPSbmyIL-73"/><g data-cell-id="f0jid7ufaLWQjPSbmyIL-79"/><g data-cell-id="3OdCJHqYtBplBPbDop5Z-8"/><g data-cell-id="3OdCJHqYtBplBPbDop5Z-11"/><g data-cell-id="3OdCJHqYtBplBPbDop5Z-12"/><g data-cell-id="3OdCJHqYtBplBPbDop5Z-13"><g data-cell-id="zEQGm5ujvmd-3Wo6flh--10"/></g><g data-cell-id="3OdCJHqYtBplBPbDop5Z-17"/><g data-cell-id="f0jid7ufaLWQjPSbmyIL-88"/><g data-cell-id="3OdCJHqYtBplBPbDop5Z-20"/><g data-cell-id="f0jid7ufaLWQjPSbmyIL-86"/><g data-cell-id="3OdCJHqYtBplBPbDop5Z-6"/><g data-cell-id="f0jid7ufaLWQjPSbmyIL-85"/><g data-cell-id="P2HnSOVtxoNhvSpFIuC3-5"/><g data-cell-id="P2HnSOVtxoNhvSpFIuC3-8"/><g data-cell-id="P2HnSOVtxoNhvSpFIuC3-7"/><g data-cell-id="P2HnSOVtxoNhvSpFIuC3-11"/><g data-cell-id="P2HnSOVtxoNhvSpFIuC3-12"/><g data-cell-id="P2HnSOVtxoNhvSpFIuC3-13"/><g data-cell-id="P2HnSOVtxoNhvSpFIuC3-14"/><g data-cell-id="P2HnSOVtxoNhvSpFIuC3-15"/><g data-cell-id="P2HnSOVtxoNhvSpFIuC3-16"/><g data-cell-id="P2HnSOVtxoNhvSpFIuC3-17"/><g data-cell-id="P2HnSOVtxoNhvSpFIuC3-6"/><g data-cell-id="P2HnSOVtxoNhvSpFIuC3-18"><g data-cell-id="P2HnSOVtxoNhvSpFIuC3-19"/></g><g data-cell-id="P2HnSOVtxoNhvSpFIuC3-20"/><g data-cell-id="P2HnSOVtxoNhvSpFIuC3-21"/><g data-cell-id="P2HnSOVtxoNhvSpFIuC3-23"/><g data-cell-id="P2HnSOVtxoNhvSpFIuC3-24"/><g data-cell-id="P2HnSOVtxoNhvSpFIuC3-26"/><g data-cell-id="P2HnSOVtxoNhvSpFIuC3-31"/><g data-cell-id="P2HnSOVtxoNhvSpFIuC3-39"/><g data-cell-id="P2HnSOVtxoNhvSpFIuC3-40"/><g data-cell-id="P2HnSOVtxoNhvSpFIuC3-41"/><g data-cell-id="P2HnSOVtxoNhvSpFIuC3-42"/><g data-cell-id="P2HnSOVtxoNhvSpFIuC3-67"/><g data-cell-id="P2HnSOVtxoNhvSpFIuC3-68"/><g data-cell-id="P2HnSOVtxoNhvSpFIuC3-69"/><g data-cell-id="P2HnSOVtxoNhvSpFIuC3-70"/><g data-cell-id="P2HnSOVtxoNhvSpFIuC3-71"/><g data-cell-id="P2HnSOVtxoNhvSpFIuC3-72"/><g data-cell-id="zEQGm5ujvmd-3Wo6flh--3"/><g data-cell-id="zEQGm5ujvmd-3Wo6flh--11"/><g data-cell-id="zEQGm5ujvmd-3Wo6flh--13"/><g data-cell-id="zEQGm5ujvmd-3Wo6flh--15"/><g data-cell-id="zEQGm5ujvmd-3Wo6flh--16"/><g data-cell-id="puLAYJQTpU-C8gVqayVb-1"/><g data-cell-id="HEnMXt0etIGo8x5HntGw-1"/></g></g></g></svg>