<?xml version="1.0" encoding="UTF-8"?>
<!-- Do not edit this file with editors other than draw.io -->
<!DOCTYPE svg PUBLIC "-//W3C//DTD SVG 1.1//EN" "http://www.w3.org/Graphics/SVG/1.1/DTD/svg11.dtd">
<svg xmlns="http://www.w3.org/2000/svg" style="background: transparent; background-color: transparent; color-scheme: light dark;" xmlns:xlink="http://www.w3.org/1999/xlink" version="1.1" width="48px" height="48px" viewBox="0 0 48 48" content="&lt;mxfile host=&quot;app.diagrams.net&quot; scale=&quot;1&quot; border=&quot;0&quot;&gt;&#10;  &lt;diagram name=&quot;Página-1&quot; id=&quot;bb_zqYo9tZuTHAQjKDAu&quot;&gt;&#10;    &lt;mxGraphModel dx=&quot;1525&quot; dy=&quot;224&quot; grid=&quot;0&quot; gridSize=&quot;10&quot; guides=&quot;1&quot; tooltips=&quot;1&quot; connect=&quot;1&quot; arrows=&quot;1&quot; fold=&quot;1&quot; page=&quot;0&quot; pageScale=&quot;1&quot; pageWidth=&quot;827&quot; pageHeight=&quot;1169&quot; math=&quot;0&quot; shadow=&quot;0&quot;&gt;&#10;      &lt;root&gt;&#10;        &lt;mxCell id=&quot;0&quot; /&gt;&#10;        &lt;mxCell id=&quot;1&quot; parent=&quot;0&quot; /&gt;&#10;        &lt;mxCell id=&quot;2&quot; parent=&quot;1&quot; style=&quot;sketch=0;outlineConnect=0;fontColor=#232F3E;gradientColor=none;fillColor=#232F3D;strokeColor=none;dashed=0;verticalLabelPosition=bottom;verticalAlign=top;align=center;html=1;fontSize=12;fontStyle=0;aspect=fixed;pointerEvents=1;shape=mxgraph.aws4.globe;&quot; value=&quot;&quot; vertex=&quot;1&quot;&gt;&#10;          &lt;mxGeometry height=&quot;48&quot; width=&quot;48&quot; x=&quot;616&quot; y=&quot;654&quot; as=&quot;geometry&quot; /&gt;&#10;        &lt;/mxCell&gt;&#10;      &lt;/root&gt;&#10;    &lt;/mxGraphModel&gt;&#10;  &lt;/diagram&gt;&#10;&lt;/mxfile&gt;&#10;"><defs/><g><g data-cell-id="0"><g data-cell-id="1"><g data-cell-id="3OdCJHqYtBplBPbDop5Z-7"/><g data-cell-id="P2HnSOVtxoNhvSpFIuC3-25"/><g data-cell-id="P2HnSOVtxoNhvSpFIuC3-1"/><g data-cell-id="f0jid7ufaLWQjPSbmyIL-44"/><g data-cell-id="f0jid7ufaLWQjPSbmyIL-52"/><g data-cell-id="f0jid7ufaLWQjPSbmyIL-55"/><g data-cell-id="f0jid7ufaLWQjPSbmyIL-42"/><g data-cell-id="f0jid7ufaLWQjPSbmyIL-62"/><g data-cell-id="f0jid7ufaLWQjPSbmyIL-78"/><g data-cell-id="f0jid7ufaLWQjPSbmyIL-75"/><g data-cell-id="f0jid7ufaLWQjPSbmyIL-77"/><g data-cell-id="f0jid7ufaLWQjPSbmyIL-83"/><g data-cell-id="f0jid7ufaLWQjPSbmyIL-84"><g transform="translate(0.5,0.5)"><rect x="0" y="0" width="48" height="48" fill="none" stroke="none" pointer-events="all"/><path d="M 39.43 8.66 C 37.88 9.42 36.06 10.05 34.03 10.51 C 33.11 7.49 31.87 5 30.39 3.19 C 33.85 4.26 36.94 6.16 39.43 8.66 Z M 35.76 22.33 C 35.69 18.81 35.28 15.55 34.6 12.66 C 37.01 12.1 39.17 11.33 40.96 10.39 C 43.63 13.71 45.34 17.83 45.68 22.33 Z M 34.28 35.59 C 35.15 32.34 35.67 28.6 35.76 24.56 L 45.74 24.56 C 45.61 29.59 43.79 34.21 40.79 37.84 C 38.96 36.89 36.73 36.14 34.28 35.59 Z M 33.63 37.73 C 35.72 38.18 37.6 38.79 39.2 39.55 C 36.51 42.18 33.19 44.06 29.56 45.02 C 31.19 43.33 32.58 40.83 33.63 37.73 Z M 15.67 37.9 C 16.79 41.14 18.29 43.73 20.04 45.39 C 16.06 44.65 12.47 42.83 9.56 40.25 C 11.2 39.27 13.29 38.47 15.67 37.9 Z M 13.48 24.56 C 13.57 28.67 14.11 32.48 15.01 35.77 C 12.23 36.46 9.81 37.43 7.93 38.63 C 4.52 34.89 2.4 29.97 2.26 24.56 Z M 14.68 12.46 C 13.97 15.4 13.56 18.73 13.48 22.33 L 2.32 22.33 C 2.69 17.45 4.68 13.02 7.75 9.57 C 9.58 10.77 11.95 11.76 14.68 12.46 Z M 15.26 10.32 C 12.95 9.73 10.92 8.93 9.35 7.95 C 12.08 5.45 15.44 3.64 19.18 2.79 C 17.58 4.58 16.24 7.16 15.26 10.32 Z M 15.71 22.33 C 15.79 18.8 16.19 15.65 16.84 12.95 C 19.4 13.45 22.18 13.71 25.05 13.71 C 27.61 13.71 30.1 13.5 32.43 13.1 C 33.06 15.76 33.45 18.86 33.53 22.33 Z M 31.44 37.32 C 29.69 42.29 27.11 45.21 24.62 45.21 C 22.15 45.21 19.59 42.34 17.84 37.45 C 20.09 37.05 22.53 36.84 25.05 36.84 C 27.19 36.84 29.33 37 31.44 37.32 Z M 25.05 34.6 C 22.3 34.6 19.64 34.85 17.18 35.31 C 16.34 32.27 15.71 28.64 15.63 24.56 L 33.49 24.56 C 33.4 28.58 32.92 32.16 32.1 35.17 C 29.87 34.81 27.49 34.6 25.05 34.6 Z M 25.1 2.29 C 27.63 2.64 30.21 5.72 31.85 10.94 C 29.71 11.29 27.41 11.48 25.05 11.48 C 22.38 11.48 19.8 11.24 17.44 10.81 C 19.14 5.47 21.83 2.4 24.43 2.25 C 24.66 2.26 24.88 2.28 25.1 2.29 Z M 25.27 0.06 C 25.05 0.04 24.84 0 24.62 0 C 24.55 0 24.48 0.02 24.41 0.02 C 24.27 0.02 24.14 0 24 0 C 10.77 0 0 10.77 0 24 C 0 37.23 10.77 48 24 48 C 37.23 48 48 37.23 48 24 C 48 11.19 37.91 0.73 25.27 0.06 Z" fill="#232f3d" stroke="none" pointer-events="all" style="fill: light-dark(rgb(35, 47, 61), rgb(190, 200, 212));"/></g></g><g data-cell-id="f0jid7ufaLWQjPSbmyIL-68"/><g data-cell-id="f0jid7ufaLWQjPSbmyIL-69"/><g data-cell-id="f0jid7ufaLWQjPSbmyIL-67"><g data-cell-id="f0jid7ufaLWQjPSbmyIL-80"/><g data-cell-id="f0jid7ufaLWQjPSbmyIL-66"/><g data-cell-id="P2HnSOVtxoNhvSpFIuC3-35"/><g data-cell-id="P2HnSOVtxoNhvSpFIuC3-38"/></g><g data-cell-id="f0jid7ufaLWQjPSbmyIL-72"/><g data-cell-id="f0jid7ufaLWQjPSbmyIL-73"/><g data-cell-id="f0jid7ufaLWQjPSbmyIL-79"/><g data-cell-id="3OdCJHqYtBplBPbDop5Z-8"/><g data-cell-id="3OdCJHqYtBplBPbDop5Z-11"/><g data-cell-id="3OdCJHqYtBplBPbDop5Z-12"/><g data-cell-id="3OdCJHqYtBplBPbDop5Z-13"><g data-cell-id="zEQGm5ujvmd-3Wo6flh--10"/></g><g data-cell-id="3OdCJHqYtBplBPbDop5Z-17"/><g data-cell-id="f0jid7ufaLWQjPSbmyIL-88"/><g data-cell-id="3OdCJHqYtBplBPbDop5Z-20"/><g data-cell-id="f0jid7ufaLWQjPSbmyIL-86"/><g data-cell-id="3OdCJHqYtBplBPbDop5Z-6"/><g data-cell-id="f0jid7ufaLWQjPSbmyIL-85"/><g data-cell-id="P2HnSOVtxoNhvSpFIuC3-5"/><g data-cell-id="P2HnSOVtxoNhvSpFIuC3-8"/><g data-cell-id="P2HnSOVtxoNhvSpFIuC3-7"/><g data-cell-id="P2HnSOVtxoNhvSpFIuC3-11"/><g data-cell-id="P2HnSOVtxoNhvSpFIuC3-12"/><g data-cell-id="P2HnSOVtxoNhvSpFIuC3-13"/><g data-cell-id="P2HnSOVtxoNhvSpFIuC3-14"/><g data-cell-id="P2HnSOVtxoNhvSpFIuC3-15"/><g data-cell-id="P2HnSOVtxoNhvSpFIuC3-16"/><g data-cell-id="P2HnSOVtxoNhvSpFIuC3-17"/><g data-cell-id="P2HnSOVtxoNhvSpFIuC3-6"/><g data-cell-id="P2HnSOVtxoNhvSpFIuC3-18"><g data-cell-id="P2HnSOVtxoNhvSpFIuC3-19"/></g><g data-cell-id="P2HnSOVtxoNhvSpFIuC3-20"/><g data-cell-id="P2HnSOVtxoNhvSpFIuC3-21"/><g data-cell-id="P2HnSOVtxoNhvSpFIuC3-23"/><g data-cell-id="P2HnSOVtxoNhvSpFIuC3-24"/><g data-cell-id="P2HnSOVtxoNhvSpFIuC3-26"/><g data-cell-id="P2HnSOVtxoNhvSpFIuC3-31"/><g data-cell-id="P2HnSOVtxoNhvSpFIuC3-39"/><g data-cell-id="P2HnSOVtxoNhvSpFIuC3-40"/><g data-cell-id="P2HnSOVtxoNhvSpFIuC3-41"/><g data-cell-id="P2HnSOVtxoNhvSpFIuC3-42"/><g data-cell-id="P2HnSOVtxoNhvSpFIuC3-67"/><g data-cell-id="P2HnSOVtxoNhvSpFIuC3-68"/><g data-cell-id="P2HnSOVtxoNhvSpFIuC3-69"/><g data-cell-id="P2HnSOVtxoNhvSpFIuC3-70"/><g data-cell-id="P2HnSOVtxoNhvSpFIuC3-71"/><g data-cell-id="P2HnSOVtxoNhvSpFIuC3-72"/><g data-cell-id="zEQGm5ujvmd-3Wo6flh--3"/><g data-cell-id="zEQGm5ujvmd-3Wo6flh--11"/><g data-cell-id="zEQGm5ujvmd-3Wo6flh--13"/><g data-cell-id="zEQGm5ujvmd-3Wo6flh--15"/><g data-cell-id="zEQGm5ujvmd-3Wo6flh--16"/><g data-cell-id="puLAYJQTpU-C8gVqayVb-1"/><g data-cell-id="HEnMXt0etIGo8x5HntGw-1"/></g></g></g></svg>