<?xml version="1.0" encoding="UTF-8"?>
<!-- Do not edit this file with editors other than draw.io -->
<!DOCTYPE svg PUBLIC "-//W3C//DTD SVG 1.1//EN" "http://www.w3.org/Graphics/SVG/1.1/DTD/svg11.dtd">
<svg xmlns="http://www.w3.org/2000/svg" style="background: transparent; background-color: transparent; color-scheme: light dark;" xmlns:xlink="http://www.w3.org/1999/xlink" version="1.1" width="53px" height="53px" viewBox="0 0 53 53" content="&lt;mxfile host=&quot;app.diagrams.net&quot; scale=&quot;1&quot; border=&quot;0&quot;&gt;&#10;  &lt;diagram name=&quot;Página-1&quot; id=&quot;Jwbp1suKoytb3e6nSlc4&quot;&gt;&#10;    &lt;mxGraphModel dx=&quot;1623&quot; dy=&quot;278&quot; grid=&quot;0&quot; gridSize=&quot;10&quot; guides=&quot;1&quot; tooltips=&quot;1&quot; connect=&quot;1&quot; arrows=&quot;1&quot; fold=&quot;1&quot; page=&quot;0&quot; pageScale=&quot;1&quot; pageWidth=&quot;827&quot; pageHeight=&quot;1169&quot; math=&quot;0&quot; shadow=&quot;0&quot;&gt;&#10;      &lt;root&gt;&#10;        &lt;mxCell id=&quot;0&quot; /&gt;&#10;        &lt;mxCell id=&quot;1&quot; parent=&quot;0&quot; /&gt;&#10;        &lt;mxCell id=&quot;2&quot; parent=&quot;1&quot; style=&quot;sketch=0;outlineConnect=0;fontColor=#232F3E;gradientColor=none;fillColor=#232F3D;strokeColor=none;dashed=0;verticalLabelPosition=bottom;verticalAlign=top;align=center;html=1;fontSize=12;fontStyle=0;aspect=fixed;pointerEvents=1;shape=mxgraph.aws4.users;&quot; value=&quot;&quot; vertex=&quot;1&quot;&gt;&#10;          &lt;mxGeometry height=&quot;53&quot; width=&quot;53&quot; x=&quot;-131&quot; y=&quot;1094&quot; as=&quot;geometry&quot; /&gt;&#10;        &lt;/mxCell&gt;&#10;      &lt;/root&gt;&#10;    &lt;/mxGraphModel&gt;&#10;  &lt;/diagram&gt;&#10;&lt;/mxfile&gt;&#10;"><defs/><g><g data-cell-id="0"><g data-cell-id="1"><g data-cell-id="P2HnSOVtxoNhvSpFIuC3-25"/><g data-cell-id="P2HnSOVtxoNhvSpFIuC3-1"/><g data-cell-id="f0jid7ufaLWQjPSbmyIL-44"/><g data-cell-id="f0jid7ufaLWQjPSbmyIL-52"><g transform="translate(0.5,0.5)"><rect x="0" y="0" width="53" height="53" fill="none" stroke="none" pointer-events="all"/><path d="M 32.09 8.78 C 32.09 5.27 34.99 2.41 38.57 2.41 C 42.14 2.41 45.05 5.27 45.05 8.78 C 45.05 12.29 42.14 15.14 38.57 15.14 C 34.99 15.14 32.09 12.29 32.09 8.78 Z M 45.97 17.27 C 45.19 16.78 44.37 16.38 43.52 16.06 C 45.89 14.48 47.46 11.81 47.46 8.78 C 47.46 3.94 43.47 0 38.57 0 C 33.67 0 29.68 3.94 29.68 8.78 C 29.68 11.8 31.24 14.47 33.6 16.05 C 32.06 16.63 30.61 17.48 29.33 18.58 L 30.9 20.41 C 33.05 18.57 35.76 17.55 38.55 17.55 C 40.72 17.55 42.84 18.16 44.7 19.31 C 48 21.36 50.17 24.96 50.53 28.91 L 38.55 28.91 L 38.55 31.32 L 51.8 31.32 C 52.46 31.32 53 30.78 53 30.11 C 53 24.88 50.31 19.96 45.97 17.27 Z M 8 8.78 C 8 5.27 10.9 2.41 14.48 2.41 C 18.05 2.41 20.96 5.27 20.96 8.78 C 20.96 12.29 18.05 15.14 14.48 15.14 C 10.9 15.14 8 12.29 8 8.78 Z M 14.45 28.91 L 2.46 28.91 C 3.05 22.55 8.2 17.55 14.45 17.55 C 16.63 17.55 18.75 18.16 20.61 19.31 C 21.13 19.64 21.63 20.01 22.1 20.41 L 23.67 18.58 C 23.11 18.1 22.51 17.66 21.88 17.27 C 21.1 16.78 20.28 16.38 19.43 16.06 C 21.8 14.48 23.36 11.81 23.36 8.78 C 23.36 3.94 19.38 0 14.48 0 C 9.58 0 5.59 3.94 5.59 8.78 C 5.59 11.81 7.15 14.48 9.52 16.06 C 3.98 18.15 0 23.65 0 30.11 C 0 30.78 0.54 31.32 1.2 31.32 L 14.45 31.32 Z M 14.51 50.59 C 15.09 44.23 20.25 39.23 26.5 39.23 C 28.67 39.23 30.8 39.84 32.65 40.99 C 35.95 43.04 38.12 46.65 38.49 50.59 Z M 20.04 30.46 C 20.04 26.95 22.95 24.09 26.52 24.09 C 30.1 24.09 33 26.95 33 30.46 C 33 33.97 30.1 36.83 26.52 36.83 C 22.95 36.83 20.04 33.97 20.04 30.46 Z M 33.92 38.95 C 33.14 38.46 32.32 38.06 31.47 37.74 C 33.85 36.16 35.41 33.49 35.41 30.46 C 35.41 25.62 31.42 21.68 26.52 21.68 C 21.62 21.68 17.63 25.62 17.63 30.46 C 17.63 33.49 19.2 36.16 21.57 37.74 C 16.02 39.84 12.05 45.34 12.05 51.8 C 12.05 52.46 12.59 53 13.25 53 L 39.75 53 C 40.42 53 40.95 52.46 40.95 51.8 C 40.95 46.56 38.26 41.64 33.92 38.95 Z" fill="#232f3d" stroke="none" pointer-events="all" style="fill: light-dark(rgb(35, 47, 61), rgb(190, 200, 212));"/></g></g><g data-cell-id="f0jid7ufaLWQjPSbmyIL-55"/><g data-cell-id="f0jid7ufaLWQjPSbmyIL-42"/><g data-cell-id="f0jid7ufaLWQjPSbmyIL-62"/><g data-cell-id="f0jid7ufaLWQjPSbmyIL-78"/><g data-cell-id="f0jid7ufaLWQjPSbmyIL-75"/><g data-cell-id="f0jid7ufaLWQjPSbmyIL-77"/><g data-cell-id="f0jid7ufaLWQjPSbmyIL-83"/><g data-cell-id="f0jid7ufaLWQjPSbmyIL-84"/><g data-cell-id="f0jid7ufaLWQjPSbmyIL-68"/><g data-cell-id="f0jid7ufaLWQjPSbmyIL-69"/><g data-cell-id="f0jid7ufaLWQjPSbmyIL-67"><g data-cell-id="f0jid7ufaLWQjPSbmyIL-80"/><g data-cell-id="f0jid7ufaLWQjPSbmyIL-66"/><g data-cell-id="P2HnSOVtxoNhvSpFIuC3-35"/><g data-cell-id="P2HnSOVtxoNhvSpFIuC3-38"/></g><g data-cell-id="f0jid7ufaLWQjPSbmyIL-72"/><g data-cell-id="f0jid7ufaLWQjPSbmyIL-73"/><g data-cell-id="f0jid7ufaLWQjPSbmyIL-79"/><g data-cell-id="3OdCJHqYtBplBPbDop5Z-7"/><g data-cell-id="3OdCJHqYtBplBPbDop5Z-8"/><g data-cell-id="3OdCJHqYtBplBPbDop5Z-11"/><g data-cell-id="3OdCJHqYtBplBPbDop5Z-12"/><g data-cell-id="3OdCJHqYtBplBPbDop5Z-13"><g data-cell-id="zEQGm5ujvmd-3Wo6flh--10"/></g><g data-cell-id="3OdCJHqYtBplBPbDop5Z-17"/><g data-cell-id="f0jid7ufaLWQjPSbmyIL-88"/><g data-cell-id="3OdCJHqYtBplBPbDop5Z-20"/><g data-cell-id="f0jid7ufaLWQjPSbmyIL-86"/><g data-cell-id="3OdCJHqYtBplBPbDop5Z-6"/><g data-cell-id="f0jid7ufaLWQjPSbmyIL-85"/><g data-cell-id="P2HnSOVtxoNhvSpFIuC3-5"/><g data-cell-id="P2HnSOVtxoNhvSpFIuC3-8"/><g data-cell-id="P2HnSOVtxoNhvSpFIuC3-7"/><g data-cell-id="P2HnSOVtxoNhvSpFIuC3-11"/><g data-cell-id="P2HnSOVtxoNhvSpFIuC3-12"/><g data-cell-id="P2HnSOVtxoNhvSpFIuC3-13"/><g data-cell-id="P2HnSOVtxoNhvSpFIuC3-14"/><g data-cell-id="P2HnSOVtxoNhvSpFIuC3-15"/><g data-cell-id="P2HnSOVtxoNhvSpFIuC3-16"/><g data-cell-id="P2HnSOVtxoNhvSpFIuC3-17"/><g data-cell-id="P2HnSOVtxoNhvSpFIuC3-18"><g data-cell-id="P2HnSOVtxoNhvSpFIuC3-19"/></g><g data-cell-id="P2HnSOVtxoNhvSpFIuC3-20"/><g data-cell-id="P2HnSOVtxoNhvSpFIuC3-21"/><g data-cell-id="P2HnSOVtxoNhvSpFIuC3-23"/><g data-cell-id="P2HnSOVtxoNhvSpFIuC3-24"/><g data-cell-id="P2HnSOVtxoNhvSpFIuC3-26"/><g data-cell-id="P2HnSOVtxoNhvSpFIuC3-31"/><g data-cell-id="P2HnSOVtxoNhvSpFIuC3-6"/><g data-cell-id="P2HnSOVtxoNhvSpFIuC3-39"/><g data-cell-id="P2HnSOVtxoNhvSpFIuC3-40"/><g data-cell-id="P2HnSOVtxoNhvSpFIuC3-41"/><g data-cell-id="P2HnSOVtxoNhvSpFIuC3-42"/><g data-cell-id="P2HnSOVtxoNhvSpFIuC3-67"/><g data-cell-id="P2HnSOVtxoNhvSpFIuC3-68"/><g data-cell-id="P2HnSOVtxoNhvSpFIuC3-69"/><g data-cell-id="P2HnSOVtxoNhvSpFIuC3-70"/><g data-cell-id="P2HnSOVtxoNhvSpFIuC3-71"/><g data-cell-id="P2HnSOVtxoNhvSpFIuC3-72"/><g data-cell-id="zEQGm5ujvmd-3Wo6flh--3"/><g data-cell-id="zEQGm5ujvmd-3Wo6flh--11"/><g data-cell-id="zEQGm5ujvmd-3Wo6flh--13"/><g data-cell-id="zEQGm5ujvmd-3Wo6flh--15"/><g data-cell-id="zEQGm5ujvmd-3Wo6flh--16"/><g data-cell-id="puLAYJQTpU-C8gVqayVb-1"/><g data-cell-id="HEnMXt0etIGo8x5HntGw-1"/></g></g></g></svg>